<svg width="340" height="152" viewBox="0 0 340 152" fill="none" xmlns="http://www.w3.org/2000/svg">
<path d="M7.64243 40.2894C7.68502 39.3024 8.98067 38.9683 9.49518 39.8117L10.8613 42.0511C11.0349 42.3356 11.3389 42.515 11.6719 42.5293L14.2927 42.6424C15.2797 42.685 15.6137 43.9807 14.7704 44.4952L12.531 45.8613C12.2465 46.0349 12.0671 46.3389 12.0527 46.6719L11.9397 49.2927C11.8971 50.2796 10.6014 50.6137 10.0869 49.7703L8.72073 47.531C8.54714 47.2464 8.24318 47.0671 7.91017 47.0527L5.28941 46.9396C4.30243 46.897 3.96837 45.6014 4.81171 45.0869L7.05107 43.7207C7.33562 43.5471 7.51497 43.2432 7.52934 42.9101L7.64243 40.2894Z" fill="white" fill-opacity="0.2"/>
<path d="M295.642 114.289C295.685 113.302 296.981 112.968 297.495 113.812L298.861 116.051C299.035 116.336 299.339 116.515 299.672 116.529L302.293 116.642C303.28 116.685 303.614 117.981 302.77 118.495L300.531 119.861C300.246 120.035 300.067 120.339 300.053 120.672L299.94 123.293C299.897 124.28 298.601 124.614 298.087 123.77L296.721 121.531C296.547 121.246 296.243 121.067 295.91 121.053L293.289 120.94C292.302 120.897 291.968 119.601 292.812 119.087L295.051 117.721C295.336 117.547 295.515 117.243 295.529 116.91L295.642 114.289Z" fill="white" fill-opacity="0.2"/>
<path d="M144.834 26.8955C145.122 25.9504 146.46 25.9504 146.748 26.8955L147.512 29.405C147.609 29.7239 147.858 29.9735 148.177 30.0705L150.687 30.8344C151.632 31.122 151.632 32.46 150.687 32.7477L148.177 33.5115C147.858 33.6086 147.609 33.8581 147.512 34.177L146.748 36.6865C146.46 37.6316 145.122 37.6316 144.834 36.6865L144.071 34.177C143.974 33.8581 143.724 33.6086 143.405 33.5115L140.896 32.7477C139.95 32.46 139.95 31.122 140.896 30.8344L143.405 30.0705C143.724 29.9735 143.974 29.7239 144.071 29.405L144.834 26.8955Z" fill="white" fill-opacity="0.2"/>
<path d="M310.834 10.8955C311.122 9.95042 312.46 9.95042 312.748 10.8955L313.512 13.405C313.609 13.7239 313.858 13.9735 314.177 14.0705L316.687 14.8344C317.632 15.122 317.632 16.46 316.687 16.7477L314.177 17.5115C313.858 17.6086 313.609 17.8581 313.512 18.177L312.748 20.6865C312.46 21.6316 311.122 21.6316 310.834 20.6865L310.071 18.177C309.974 17.8581 309.724 17.6086 309.405 17.5115L306.896 16.7477C305.95 16.46 305.95 15.122 306.896 14.8344L309.405 14.0705C309.724 13.9735 309.974 13.7239 310.071 13.405L310.834 10.8955Z" fill="white" fill-opacity="0.2"/>
<path d="M147.028 113.691C147.75 113.017 148.909 113.686 148.685 114.648L148.092 117.203C148.017 117.528 148.108 117.869 148.336 118.112L150.127 120.028C150.802 120.75 150.133 121.909 149.17 121.685L146.615 121.092C146.291 121.017 145.95 121.108 145.706 121.336L143.79 123.127C143.068 123.802 141.909 123.133 142.133 122.17L142.726 119.615C142.802 119.291 142.71 118.95 142.483 118.706L140.691 116.79C140.017 116.068 140.686 114.909 141.648 115.133L144.203 115.726C144.528 115.802 144.869 115.71 145.112 115.483L147.028 113.691Z" fill="white" fill-opacity="0.2"/>
<path d="M52.2119 72.3578C51.9885 71.3955 53.1472 70.7265 53.8689 71.4011L54.7761 72.2492C55.0195 72.4768 55.3604 72.5682 55.6851 72.4928L56.8948 72.2119C57.8571 71.9885 58.5261 73.1472 57.8514 73.8689L57.0034 74.7761C56.7758 75.0195 56.6844 75.3604 56.7598 75.6851L57.0407 76.8948C57.2641 77.8571 56.1053 78.5261 55.3837 77.8514L54.4765 77.0034C54.233 76.7758 53.8921 76.6844 53.5674 76.7598L52.3578 77.0407C51.3955 77.2641 50.7265 76.1053 51.4011 75.3837L52.2492 74.4765C52.4768 74.233 52.5682 73.8921 52.4928 73.5674L52.2119 72.3578Z" fill="white" fill-opacity="0.5"/>
<path d="M300.384 77.4011C301.105 76.7265 302.264 77.3955 302.041 78.3578L301.76 79.5674C301.684 79.8921 301.776 80.233 302.003 80.4765L302.851 81.3837C303.526 82.1053 302.857 83.2641 301.895 83.0407L300.685 82.7598C300.361 82.6844 300.02 82.7758 299.776 83.0034L298.869 83.8514C298.147 84.5261 296.989 83.8571 297.212 82.8948L297.493 81.6851C297.568 81.3604 297.477 81.0195 297.249 80.7761L296.401 79.8689C295.727 79.1472 296.396 77.9885 297.358 78.2119L298.568 78.4928C298.892 78.5682 299.233 78.4768 299.477 78.2492L300.384 77.4011Z" fill="white" fill-opacity="0.5"/>
<path d="M202.384 14.4011C203.105 13.7265 204.264 14.3955 204.041 15.3578L203.76 16.5674C203.684 16.8921 203.776 17.233 204.003 17.4765L204.851 18.3837C205.526 19.1053 204.857 20.2641 203.895 20.0407L202.685 19.7598C202.361 19.6844 202.02 19.7758 201.776 20.0034L200.869 20.8514C200.147 21.5261 198.989 20.8571 199.212 19.8948L199.493 18.6851C199.568 18.3604 199.477 18.0195 199.249 17.7761L198.401 16.8689C197.727 16.1472 198.396 14.9885 199.358 15.2119L200.568 15.4928C200.892 15.5682 201.233 15.4768 201.477 15.2492L202.384 14.4011Z" fill="white" fill-opacity="0.5"/>
<path d="M209.358 142.143C209.646 141.198 210.984 141.198 211.272 142.143L211.633 143.331C211.73 143.65 211.98 143.9 212.299 143.997L213.487 144.358C214.432 144.646 214.432 145.984 213.487 146.272L212.299 146.633C211.98 146.73 211.73 146.98 211.633 147.299L211.272 148.487C210.984 149.432 209.646 149.432 209.358 148.487L208.997 147.299C208.9 146.98 208.65 146.73 208.331 146.633L207.143 146.272C206.198 145.984 206.198 144.646 207.143 144.358L208.331 143.997C208.65 143.9 208.9 143.65 208.997 143.331L209.358 142.143Z" fill="white" fill-opacity="0.5"/>
<path d="M88.0433 3.14313C88.331 2.19804 89.669 2.19804 89.9567 3.14313L91.1782 7.15635C91.2752 7.47522 91.5248 7.72478 91.8437 7.82184L95.8569 9.04333C96.802 9.33099 96.802 10.669 95.8569 10.9567L91.8437 12.1782C91.5248 12.2752 91.2752 12.5248 91.1782 12.8437L89.9567 16.8569C89.669 17.802 88.331 17.802 88.0433 16.8569L86.8218 12.8437C86.7248 12.5248 86.4752 12.2752 86.1563 12.1782L82.1431 10.9567C81.198 10.669 81.198 9.33099 82.1431 9.04333L86.1563 7.82184C86.4752 7.72478 86.7248 7.47522 86.8218 7.15635L88.0433 3.14313Z" fill="white"/>
<path d="M244.043 107.143C244.331 106.198 245.669 106.198 245.957 107.143L247.178 111.156C247.275 111.475 247.525 111.725 247.844 111.822L251.857 113.043C252.802 113.331 252.802 114.669 251.857 114.957L247.844 116.178C247.525 116.275 247.275 116.525 247.178 116.844L245.957 120.857C245.669 121.802 244.331 121.802 244.043 120.857L242.822 116.844C242.725 116.525 242.475 116.275 242.156 116.178L238.143 114.957C237.198 114.669 237.198 113.331 238.143 113.043L242.156 111.822C242.475 111.725 242.725 111.475 242.822 111.156L244.043 107.143Z" fill="white"/>
<path d="M49.0433 122.143C49.331 121.198 50.669 121.198 50.9567 122.143L52.1782 126.156C52.2752 126.475 52.5248 126.725 52.8437 126.822L56.8569 128.043C57.802 128.331 57.802 129.669 56.8569 129.957L52.8437 131.178C52.5248 131.275 52.2752 131.525 52.1782 131.844L50.9567 135.857C50.669 136.802 49.331 136.802 49.0433 135.857L47.8218 131.844C47.7248 131.525 47.4752 131.275 47.1563 131.178L43.1431 129.957C42.198 129.669 42.198 128.331 43.1431 128.043L47.1563 126.822C47.4752 126.725 47.7248 126.475 47.8218 126.156L49.0433 122.143Z" fill="white"/>
<path d="M329.043 66.1431C329.331 65.198 330.669 65.198 330.957 66.1431L332.178 70.1563C332.275 70.4752 332.525 70.7248 332.844 70.8218L336.857 72.0433C337.802 72.331 337.802 73.669 336.857 73.9567L332.844 75.1782C332.525 75.2752 332.275 75.5248 332.178 75.8437L330.957 79.8569C330.669 80.802 329.331 80.802 329.043 79.8569L327.822 75.8437C327.725 75.5248 327.475 75.2752 327.156 75.1782L323.143 73.9567C322.198 73.669 322.198 72.331 323.143 72.0433L327.156 70.8218C327.475 70.7248 327.725 70.4752 327.822 70.1563L329.043 66.1431Z" fill="white" fill-opacity="0.5"/>
</svg>
