<svg width="358" height="100" viewBox="0 0 358 100" fill="none" xmlns="http://www.w3.org/2000/svg">
<mask id="mask0_55_1972" style="mask-type:alpha" maskUnits="userSpaceOnUse" x="0" y="0" width="358" height="100">
<rect width="358" height="100" rx="17" fill="url(#paint0_linear_55_1972)"/>
</mask>
<g mask="url(#mask0_55_1972)">
<path d="M256.642 78.2894C256.685 77.3024 257.981 76.9683 258.495 77.8117L259.861 80.0511C260.035 80.3356 260.339 80.515 260.672 80.5293L263.293 80.6424C264.28 80.685 264.614 81.9807 263.77 82.4952L261.531 83.8613C261.246 84.0349 261.067 84.3389 261.053 84.6719L260.94 87.2927C260.897 88.2796 259.601 88.6137 259.087 87.7703L257.721 85.531C257.547 85.2464 257.243 85.0671 256.91 85.0527L254.289 84.9396C253.302 84.897 252.968 83.6014 253.812 83.0869L256.051 81.7207C256.336 81.5471 256.515 81.2432 256.529 80.9101L256.642 78.2894Z" fill="white" fill-opacity="0.2"/>
<path d="M239.384 54.4011C240.105 53.7265 241.264 54.3955 241.041 55.3578L240.76 56.5674C240.684 56.8921 240.776 57.233 241.003 57.4765L241.851 58.3837C242.526 59.1053 241.857 60.2641 240.895 60.0407L239.685 59.7598C239.361 59.6844 239.02 59.7758 238.776 60.0034L237.869 60.8514C237.147 61.5261 235.989 60.8571 236.212 59.8948L236.493 58.6851C236.568 58.3604 236.477 58.0195 236.249 57.7761L235.401 56.8689C234.727 56.1472 235.396 54.9885 236.358 55.2119L237.568 55.4928C237.892 55.5682 238.233 55.4768 238.477 55.2492L239.384 54.4011Z" fill="white" fill-opacity="0.5"/>
<path d="M264.043 11.1431C264.331 10.198 265.669 10.198 265.957 11.1431L267.178 15.1563C267.275 15.4752 267.525 15.7248 267.844 15.8218L271.857 17.0433C272.802 17.331 272.802 18.669 271.857 18.9567L267.844 20.1782C267.525 20.2752 267.275 20.5248 267.178 20.8437L265.957 24.8569C265.669 25.802 264.331 25.802 264.043 24.8569L262.822 20.8437C262.725 20.5248 262.475 20.2752 262.156 20.1782L258.143 18.9567C257.198 18.669 257.198 17.331 258.143 17.0433L262.156 15.8218C262.475 15.7248 262.725 15.4752 262.822 15.1563L264.043 11.1431Z" fill="white"/>
<path d="M337.26 65.2437C337.982 64.5691 339.141 65.2381 338.917 66.2004L337.968 70.2867C337.893 70.6113 337.984 70.9522 338.212 71.1957L341.077 74.2602C341.751 74.9819 341.082 76.1406 340.12 75.9172L336.034 74.9684C335.709 74.893 335.368 74.9844 335.125 75.212L332.06 78.0768C331.339 78.7515 330.18 78.0824 330.403 77.1201L331.352 73.0338C331.427 72.7092 331.336 72.3683 331.108 72.1248L328.244 69.0603C327.569 68.3387 328.238 67.1799 329.2 67.4033L333.287 68.3521C333.611 68.4275 333.952 68.3361 334.196 68.1085L337.26 65.2437Z" fill="white"/>
</g>
<defs>
<linearGradient id="paint0_linear_55_1972" x1="0" y1="0" x2="358" y2="100" gradientUnits="userSpaceOnUse">
<stop stop-color="#744EFF"/>
<stop offset="1" stop-color="#CBA5FF"/>
</linearGradient>
</defs>
</svg>
