<svg id="svg-coin-star" viewBox="0 0 16 17" fill="none" xmlns="http://www.w3.org/2000/svg">
<path fill-rule="evenodd" clip-rule="evenodd" d="M7.58709 13.8156L4.00711 15.9904C3.63486 16.2165 3.14822 16.1006 2.92019 15.7315C2.80881 15.5511 2.77561 15.3339 2.8281 15.129L3.38228 12.9659C3.58233 12.185 4.12115 11.5323 4.85353 11.1836L8.7591 9.32411C8.94118 9.23742 9.01793 9.02078 8.93051 8.84021C8.85971 8.69398 8.69961 8.61215 8.53843 8.63983L4.19102 9.3862C3.3073 9.53792 2.40105 9.29591 1.71363 8.72466L0.340249 7.58331C0.0056581 7.30525 -0.0382751 6.81085 0.242123 6.47906C0.378497 6.31767 0.574607 6.21749 0.786283 6.20106L4.98237 5.87541C5.27882 5.85241 5.53716 5.66637 5.65097 5.39395L7.26974 1.51889C7.43682 1.11894 7.89921 0.929029 8.30252 1.09471C8.49617 1.17427 8.65003 1.32685 8.73026 1.51889L10.349 5.39395C10.4628 5.66637 10.7212 5.85241 11.0176 5.87541L15.2368 6.20286C15.672 6.23663 15.9972 6.61388 15.9631 7.04548C15.9468 7.25309 15.8477 7.44571 15.6879 7.58082L12.4702 10.3012C12.2436 10.4927 12.1448 10.7941 12.2144 11.0811L13.2037 15.1564C13.3058 15.5773 13.0446 16.0006 12.6202 16.1019C12.4162 16.1507 12.2012 16.1169 12.0223 16.0082L8.41291 13.8156C8.15952 13.6617 7.84048 13.6617 7.58709 13.8156Z" fill="currentColor"/>
</svg>
