<svg viewBox="0 0 24 25" fill="none" xmlns="http://www.w3.org/2000/svg">
<g clip-path="url(#clip0_157_65)">
<path fill-rule="evenodd" clip-rule="evenodd" d="M11.7117 19.9734L6.65845 23.0703C6.13298 23.3923 5.44629 23.2272 5.12438 22.7016C4.96696 22.4447 4.92028 22.1352 4.99465 21.8436L5.77688 18.7636C6.05915 17.6515 6.81967 16.7224 7.85378 16.2255L13.3669 13.5777C13.6236 13.4544 13.7322 13.146 13.609 12.8886C13.5091 12.6806 13.2833 12.5639 13.0553 12.6035L6.91847 13.6662C5.67102 13.8823 4.39155 13.5375 3.4215 12.7241L1.48302 11.0988C1.01075 10.703 0.948867 9.99866 1.3446 9.52623C1.5373 9.29653 1.81415 9.15371 2.11271 9.13036L8.03617 8.66662C8.4547 8.63404 8.81949 8.36905 8.98017 7.98079L11.265 2.46314C11.5006 1.89351 12.1536 1.62309 12.723 1.8593C12.9966 1.97279 13.2138 2.19 13.3267 2.46314L15.6115 7.98079C15.7722 8.3685 16.137 8.6335 16.5555 8.66662L22.5115 9.13308C23.126 9.18141 23.5847 9.71846 23.5369 10.3332C23.5141 10.6286 23.3741 10.9033 23.1483 11.0956L18.6063 14.9689C18.2866 15.2415 18.1471 15.6711 18.2453 16.0794L19.6415 21.8821C19.7859 22.4816 19.4168 23.0844 18.818 23.2283C18.5303 23.2978 18.2263 23.2495 17.9739 23.0947L12.8788 19.9723C12.5211 19.753 12.0706 19.753 11.7134 19.9723L11.7117 19.9734Z" fill="url(#paint0_linear_157_65)"/>
<path fill-rule="evenodd" clip-rule="evenodd" d="M10.6287 20.4035L5.57544 23.5003C5.04997 23.8223 4.36328 23.6573 4.04138 23.1316C3.88395 22.8748 3.83727 22.5652 3.91164 22.2736L4.69387 19.1936C4.97615 18.0815 5.73666 17.1524 6.77077 16.6555L12.2838 14.0078C12.5406 13.8845 12.6492 13.5761 12.526 13.3187C12.4261 13.1107 12.2002 12.9939 11.9723 13.0336L5.83546 14.0963C4.58802 14.3124 3.30854 13.9676 2.33849 13.1541L0.400013 11.5289C-0.072257 11.133 -0.134141 10.4287 0.261589 9.95628C0.454297 9.72658 0.731145 9.58377 1.02971 9.56042L6.95317 9.09668C7.37169 9.06409 7.73648 8.7991 7.89716 8.41084L10.182 2.89319C10.4176 2.32356 11.0706 2.05314 11.64 2.28935C11.9136 2.40285 12.1308 2.62005 12.2437 2.89319L14.5285 8.41084C14.6892 8.79856 15.054 9.06355 15.4725 9.09668L21.4285 9.56313C22.043 9.61146 22.5017 10.1485 22.4539 10.7632C22.4311 11.0586 22.2911 11.3334 22.0653 11.5256L17.5233 15.399C17.2036 15.6716 17.0641 16.1011 17.1623 16.5095L18.5585 22.3122C18.7029 22.9117 18.3338 23.5144 17.735 23.6583C17.4473 23.7279 17.1433 23.6795 16.8909 23.5248L11.7958 20.4024C11.4381 20.183 10.9875 20.183 10.6304 20.4024L10.6287 20.4035Z" fill="url(#paint1_linear_157_65)"/>
<path fill-rule="evenodd" clip-rule="evenodd" d="M2.08226 10.8762C2.27497 10.6465 2.55181 10.5037 2.85038 10.4803L8.77384 10.0166C9.19237 9.98399 9.55715 9.719 9.71783 9.33073L12.0026 3.81309C12.2382 3.24346 12.7284 2.53862 13.2979 2.77483C13.3673 2.80361 13.5959 3.27387 13.6572 3.31514C13.5427 3.04797 13.1659 2.40178 12.8972 2.29046C12.3278 2.05478 11.6753 2.32521 11.4392 2.8943L9.15437 8.41194C8.99369 8.79966 8.6289 9.06465 8.21037 9.09778L2.28691 9.56152C1.98835 9.58487 1.7115 9.72768 1.51879 9.95738C1.12306 10.4298 1.18495 11.1336 1.65722 11.53L1.91941 12.0475C1.75167 11.6701 1.79944 11.2145 2.08226 10.8762Z" fill="#FEECBD"/>
<path fill-rule="evenodd" clip-rule="evenodd" d="M17.2926 9.72383L23.0994 10.288C23.2942 10.307 23.4723 10.389 23.6232 10.5161C23.4685 10.0697 23.126 9.74175 22.4914 9.53866L16.6846 8.97446C16.7107 9.11891 16.531 9.038 16.3779 8.9093C16.537 9.37033 16.8893 9.68474 17.2926 9.72383Z" fill="#FEECBD"/>
<path fill-rule="evenodd" clip-rule="evenodd" d="M5.56948 22.7585L6.35171 19.6785C6.63399 18.5664 7.39451 17.6373 8.42861 17.1404L13.9417 14.4926C14.6056 14.2016 15.0122 13.3414 14.5377 12.5171C14.1887 11.9106 12.7762 12.2396 12.6264 12.2054C12.6334 12.4042 13.7322 13.9165 13.5411 14.0083L8.028 16.656C6.99443 17.1524 6.23337 18.082 5.9511 19.1941L5.16887 22.2741C5.09504 22.5658 5.14172 22.8753 5.2986 23.1321C5.38492 23.2733 5.49837 23.3873 5.62702 23.4742C5.5304 23.25 5.50868 22.9985 5.56948 22.7591V22.7585Z" fill="#FEECBD"/>
<path d="M18.5525 23.7224C18.2654 23.7224 17.9825 23.6431 17.7312 23.4895L12.6361 20.3671C12.4255 20.2378 12.1633 20.2378 11.9527 20.3671L6.8994 23.4639C6.15788 23.9184 5.18457 23.6844 4.73076 22.9426C4.50982 22.5821 4.44305 22.1401 4.54728 21.7301L5.32951 18.65C5.64652 17.4022 6.49335 16.3672 7.65394 15.81L13.167 13.1623C13.1942 13.1492 13.2056 13.1161 13.1925 13.089C13.1822 13.0672 13.1578 13.0548 13.1339 13.0586L6.99711 14.1212C5.61287 14.3613 4.20149 13.9806 3.12504 13.0781L1.18656 11.4528C0.86357 11.1824 0.665433 10.8018 0.62852 10.382C0.591607 9.96224 0.72026 9.55335 0.990594 9.23025C1.26093 8.90769 1.65666 8.70352 2.07627 8.67093L7.99973 8.20719C8.24618 8.18765 8.45843 8.03397 8.55343 7.80536L10.8382 2.28771C11.171 1.48404 12.0955 1.10121 12.8989 1.43408C13.2881 1.59536 13.591 1.89837 13.7522 2.28771L16.037 7.80536C16.132 8.03397 16.3437 8.18819 16.5907 8.20719L22.5467 8.67365C23.4136 8.74153 24.064 9.5023 23.9961 10.3695C23.9635 10.7844 23.7638 11.177 23.4473 11.4469L18.9054 15.3208C18.717 15.4815 18.6356 15.7313 18.6937 15.9724L20.0898 21.7751C20.1886 22.1846 20.1219 22.6087 19.902 22.9682C19.6822 23.3276 19.3353 23.5801 18.926 23.6784C18.8028 23.7083 18.6779 23.723 18.5542 23.723L18.5525 23.7224ZM12.2947 19.3462C12.5797 19.3462 12.8647 19.4239 13.1187 19.5797L18.2138 22.7021C18.3631 22.7938 18.539 22.8215 18.7089 22.7803C18.8788 22.7395 19.0226 22.6347 19.1138 22.4854C19.205 22.3361 19.2327 22.1607 19.192 21.9907L17.7958 16.188C17.6563 15.607 17.8517 15.0053 18.3061 14.6181L22.848 10.7447C22.9794 10.6329 23.0624 10.47 23.076 10.2978C23.0896 10.1235 23.0347 9.95409 22.9213 9.82105C22.8078 9.68801 22.6493 9.60765 22.4751 9.59407L16.519 9.12762C15.9246 9.08092 15.4133 8.71003 15.1848 8.15832L12.8999 2.64013C12.8332 2.47886 12.7072 2.35288 12.546 2.28608C12.2127 2.14816 11.8289 2.30672 11.691 2.64013L9.40623 8.15778C9.17769 8.70895 8.66688 9.08037 8.07193 9.12707L2.14847 9.59081C1.97422 9.60439 1.81028 9.6891 1.69791 9.82268C1.58555 9.95681 1.53235 10.1262 1.54755 10.3005C1.56275 10.4749 1.64526 10.6323 1.77934 10.7447L3.71782 12.37C4.58582 13.0976 5.72415 13.4039 6.83968 13.2111L12.9765 12.1484C13.4053 12.0746 13.8363 12.2961 14.0247 12.6888C14.2581 13.1753 14.0524 13.7607 13.5665 13.9936L8.05347 16.6414C7.14042 17.0802 6.47381 17.8947 6.22411 18.877L5.44187 21.9571C5.39845 22.127 5.42667 22.3106 5.51787 22.4604C5.70624 22.7683 6.11011 22.8655 6.4179 22.6766L11.4712 19.5797C11.7252 19.4239 12.0102 19.3462 12.2952 19.3462H12.2947Z" fill="#F38F1A"/>
</g>
<defs>
<linearGradient id="paint0_linear_157_65" x1="12.311" y1="23.2598" x2="12.311" y2="1.77405" gradientUnits="userSpaceOnUse">
<stop stop-color="#F9B32E"/>
<stop offset="1" stop-color="#FDC83A"/>
</linearGradient>
<linearGradient id="paint1_linear_157_65" x1="11.228" y1="23.6904" x2="11.228" y2="2.20464" gradientUnits="userSpaceOnUse">
<stop stop-color="#F9B32E"/>
<stop offset="1" stop-color="#FDC83A"/>
</linearGradient>
<clipPath id="clip0_157_65">
<rect width="24" height="24" fill="white" transform="translate(0 0.5)"/>
</clipPath>
</defs>
</svg>
