<svg width="24" height="25" viewBox="0 0 24 25" fill="none" xmlns="http://www.w3.org/2000/svg">
<path d="M7.51758 22.07L7.51755 22.07C6.84803 22.4801 5.97279 22.2698 5.56265 21.6003L5.56264 21.6003C5.36232 21.2733 5.3026 20.8792 5.39701 20.5076L5.84542 20.6215L5.39701 20.5076L6.0694 17.8611C6.34585 16.7729 7.09049 15.8633 8.10259 15.3774L8.1026 15.3774L12.7183 13.1613L7.57796 14.0512C6.37159 14.26 5.13448 13.9269 4.19609 13.1405L4.19609 13.1405L2.52978 11.7441C1.928 11.2398 1.84897 10.3431 2.35329 9.74133L7.51758 22.07ZM7.51758 22.07L11.8611 19.4091C11.8611 19.4091 11.8611 19.4091 11.8611 19.4091C12.0202 19.3116 12.2206 19.3116 12.3797 19.4091L16.7589 22.0917C16.7589 22.0917 16.7589 22.0917 16.7589 22.0917C17.0806 22.2888 17.4674 22.3501 17.8344 22.2617C18.5976 22.0779 19.0675 21.3102 18.8838 20.5468L18.434 20.655L18.8838 20.5468L17.6835 15.5609L7.51758 22.07ZM12.6645 3.0234L12.6645 3.02341C13.0128 3.1677 13.2896 3.44443 13.4338 3.79273L13.4339 3.79274L15.3979 8.5338L15.3979 8.53381C15.4693 8.70631 15.6316 8.82412 15.8177 8.83869L20.9368 9.23931C21.7196 9.30057 22.3044 9.9848 22.2432 10.7675C22.2432 10.7675 22.2432 10.7675 22.2432 10.7676L21.7819 10.7315L12.6645 3.0234ZM12.6645 3.0234C11.9391 2.7229 11.1075 3.06734 10.807 3.79274L8.84294 8.5338C8.84294 8.5338 8.84294 8.5338 8.84294 8.5338C8.77147 8.70631 8.60924 8.82412 8.42307 8.83869L3.33203 9.23712C3.33203 9.23712 3.33202 9.23712 3.33202 9.23712M12.6645 3.0234L3.33202 9.23712M3.33202 9.23712C2.9513 9.26691 2.59858 9.44861 2.3533 9.74131L3.33202 9.23712ZM12.8526 13.138C12.8526 13.138 12.8525 13.138 12.8525 13.138L12.8526 13.138L12.8526 13.138ZM12.8411 13.1023C12.8411 13.1023 12.8412 13.1023 12.8412 13.1023L12.8411 13.1023ZM12.8494 13.1193L12.8494 13.1193L12.8494 13.1193Z" fill="#FFC83D" stroke="url(#paint0_linear_156_40)" stroke-width="0.925302"/>
<g filter="url(#filter0_i_156_40)">
<path fill-rule="evenodd" clip-rule="evenodd" d="M11.6194 19.0145L7.2759 21.6755C6.82426 21.9521 6.23382 21.8102 5.95715 21.3586C5.82201 21.138 5.78173 20.8722 5.84542 20.6215L6.5178 17.975C6.76051 17.0196 7.41426 16.2211 8.30284 15.7944L13.0414 13.5193C13.2623 13.4133 13.3554 13.1482 13.2494 12.9273C13.1635 12.7484 12.9692 12.6483 12.7737 12.6821L7.49904 13.5953C6.42683 13.7809 5.32728 13.4848 4.49325 12.7859L2.82695 11.3895C2.42099 11.0493 2.36769 10.4444 2.70789 10.0385C2.87335 9.84103 3.11129 9.71845 3.36811 9.69836L8.45917 9.29993C8.81884 9.27178 9.13229 9.04417 9.27036 8.71087L11.2344 3.96981C11.4371 3.48047 11.9981 3.24812 12.4875 3.45083C12.7224 3.54816 12.9091 3.73484 13.0064 3.96981L14.9705 8.71087C15.1085 9.04417 15.422 9.27178 15.7816 9.29993L20.9007 9.70055C21.4288 9.74187 21.8233 10.2034 21.7819 10.7315C21.7621 10.9855 21.6419 11.2212 21.448 11.3865L17.544 14.7148C17.2691 14.9491 17.1493 15.3179 17.2337 15.669L18.434 20.655C18.5579 21.17 18.2409 21.6879 17.7261 21.8119C17.4786 21.8715 17.2176 21.8302 17.0006 21.6972L12.6214 19.0145C12.314 18.8262 11.9269 18.8262 11.6194 19.0145Z" fill="url(#paint1_linear_156_40)"/>
</g>
<defs>
<filter id="filter0_i_156_40" x="2.48389" y="3.37756" width="19.301" height="18.461" filterUnits="userSpaceOnUse" color-interpolation-filters="sRGB">
<feFlood flood-opacity="0" result="BackgroundImageFix"/>
<feBlend mode="normal" in="SourceGraphic" in2="BackgroundImageFix" result="shape"/>
<feColorMatrix in="SourceAlpha" type="matrix" values="0 0 0 0 0 0 0 0 0 0 0 0 0 0 0 0 0 0 127 0" result="hardAlpha"/>
<feOffset dx="0.522997" dy="1.20692"/>
<feComposite in2="hardAlpha" operator="arithmetic" k2="-1" k3="1"/>
<feColorMatrix type="matrix" values="0 0 0 0 0.996078 0 0 0 0 0.92549 0 0 0 0 0.741176 0 0 0 1 0"/>
<feBlend mode="normal" in2="shape" result="effect1_innerShadow_156_40"/>
</filter>
<linearGradient id="paint0_linear_156_40" x1="2.49461" y1="3.35861" x2="21.765" y2="21.8244" gradientUnits="userSpaceOnUse">
<stop stop-color="#FF9100"/>
<stop offset="1" stop-color="#EB8600"/>
</linearGradient>
<linearGradient id="paint1_linear_156_40" x1="12.1499" y1="3.35861" x2="12.1499" y2="21.8244" gradientUnits="userSpaceOnUse">
<stop stop-color="#FECF47"/>
<stop offset="1" stop-color="#FCB32E"/>
</linearGradient>
</defs>
</svg>
