<svg id="svg-bottom-arrow" viewBox="0 0 20 20" fill="currentColor" xmlns="http://www.w3.org/2000/svg">
<path d="M9.85693 13.7256C9.61279 13.7256 9.39062 13.6279 9.19043 13.4326L3.6167 7.72705C3.53369 7.64893 3.47021 7.56104 3.42627 7.46338C3.38721 7.36084 3.36768 7.25098 3.36768 7.13379C3.36768 6.97266 3.4043 6.82617 3.47754 6.69434C3.55566 6.5625 3.6582 6.45996 3.78516 6.38672C3.91211 6.30859 4.05615 6.26953 4.21729 6.26953C4.45166 6.26953 4.65674 6.35742 4.83252 6.5332L10.2158 12.0483H9.50537L14.8813 6.5332C15.0571 6.35742 15.2622 6.26953 15.4966 6.26953C15.6577 6.26953 15.8018 6.30859 15.9287 6.38672C16.0557 6.45996 16.1558 6.5625 16.229 6.69434C16.3071 6.82617 16.3462 6.97266 16.3462 7.13379C16.3462 7.36328 16.2632 7.56104 16.0972 7.72705L10.5234 13.4326C10.4307 13.5303 10.3281 13.6035 10.2158 13.6523C10.1035 13.7012 9.98389 13.7256 9.85693 13.7256Z"/>
</svg>