<svg id="svg-close" viewBox="0 0 10 10" fill="none" xmlns="http://www.w3.org/2000/svg">
<path d="M0.568359 9.30615C0.299805 9.04297 0.310547 8.58643 0.562988 8.33398L3.76416 5.12744L0.562988 1.92627C0.310547 1.67383 0.305176 1.22266 0.568359 0.954102C0.831543 0.685547 1.28809 0.696289 1.5459 0.94873L4.74707 4.1499L7.94287 0.94873C8.20605 0.685547 8.65186 0.690918 8.92041 0.954102C9.18896 1.22266 9.18896 1.66846 8.92578 1.93164L5.72998 5.12744L8.92578 8.32861C9.18896 8.5918 9.18359 9.0376 8.92041 9.30615C8.65723 9.57471 8.20605 9.57471 7.94287 9.31152L4.74707 6.11035L1.5459 9.31152C1.28809 9.56396 0.836914 9.57471 0.568359 9.30615Z" fill="currentColor"/>
</svg>
