<svg id="svg-coin-usdt" viewBox="0 0 16 16" fill="currentColor" xmlns="http://www.w3.org/2000/svg">
<path d="M16 7.58896C16 6.56693 13.2548 5.71421 9.60674 5.51748L9.60646 3.88904H14.1615V0.5H1.70614V3.88904H6.26082V5.52545C2.67919 5.73567 0 6.57948 0 7.58896C0 8.59859 2.67919 9.44247 6.26082 9.65233V15.5H9.60646V9.6603C13.2548 9.464 16 8.611 16 7.58896ZM7.99997 8.59579C4.08426 8.59579 0.909872 7.98185 0.909872 7.22406C0.909872 6.58242 3.18608 6.04375 6.26082 5.89387V6.28008H6.26117V7.86275C6.81551 7.89424 7.39811 7.91075 7.99997 7.91075C8.55416 7.91075 9.09235 7.89647 9.60681 7.87035V5.88798C12.7482 6.02868 15.0902 6.57302 15.0902 7.22406C15.0901 7.98185 11.9157 8.59579 7.99997 8.59579Z"/>
</svg>