<svg id="svg-error" viewBox="0 0 25 25" fill="none" xmlns="http://www.w3.org/2000/svg">
<rect x="1" y="1" width="23" height="23" rx="11.5" fill="currentColor"/>
<rect x="1" y="1" width="23" height="23" rx="11.5" stroke="#FF5A5A" stroke-width="2"/>
<path d="M8.79492 17.4727C8.23242 17.4727 7.8125 17.334 7.53516 17.0566C7.25781 16.7793 7.11914 16.3574 7.11914 15.791V14.5605C7.11914 14.4668 7.08594 14.3867 7.01953 14.3203L6.15234 13.4473C5.75 13.0488 5.54883 12.6543 5.54883 12.2637C5.54883 11.873 5.75 11.4766 6.15234 11.0742L7.01953 10.207C7.08594 10.1406 7.11914 10.0605 7.11914 9.9668V8.73633C7.11914 8.16602 7.25586 7.74414 7.5293 7.4707C7.80664 7.19336 8.22852 7.05469 8.79492 7.05469H10.0254C10.123 7.05469 10.2031 7.02148 10.2656 6.95508L11.1387 6.09375C11.5449 5.69141 11.9414 5.49023 12.3281 5.49023C12.7148 5.48633 13.1094 5.68555 13.5117 6.08789L14.3848 6.95508C14.4512 7.02148 14.5312 7.05469 14.625 7.05469H15.8555C16.4219 7.05469 16.8418 7.19336 17.1152 7.4707C17.3926 7.74805 17.5312 8.16992 17.5312 8.73633V9.9668C17.5312 10.0605 17.5664 10.1406 17.6367 10.207L18.498 11.0742C18.9004 11.4766 19.1016 11.873 19.1016 12.2637C19.1016 12.6543 18.9004 13.0488 18.498 13.4473L17.6367 14.3203C17.5664 14.3867 17.5312 14.4668 17.5312 14.5605V15.791C17.5312 16.3574 17.3926 16.7793 17.1152 17.0566C16.8418 17.334 16.4219 17.4727 15.8555 17.4727H14.625C14.5312 17.4727 14.4512 17.5059 14.3848 17.5723L13.5117 18.4395C13.1094 18.8379 12.7129 19.0371 12.3223 19.0371C11.9355 19.041 11.541 18.8418 11.1387 18.4395L10.2656 17.5723C10.2031 17.5059 10.123 17.4727 10.0254 17.4727H8.79492ZM9.01172 16.1719H10.4648C10.6328 16.1719 10.7715 16.2305 10.8809 16.3477L11.9062 17.373C12.0898 17.5527 12.2285 17.6426 12.3223 17.6426C12.4199 17.6426 12.5605 17.5527 12.7441 17.373L13.7695 16.3477C13.8789 16.2305 14.0176 16.1719 14.1855 16.1719H15.6387C15.8926 16.1719 16.0547 16.1367 16.125 16.0664C16.1953 15.9961 16.2305 15.834 16.2305 15.5801V14.127C16.2305 13.9629 16.2891 13.8242 16.4062 13.7109L17.4316 12.6855C17.6113 12.5059 17.7012 12.3672 17.7012 12.2695C17.7012 12.1719 17.6113 12.0312 17.4316 11.8477L16.4062 10.8223C16.293 10.709 16.2344 10.5703 16.2305 10.4062V8.95312C16.2305 8.70312 16.1953 8.54297 16.125 8.47266C16.0547 8.39844 15.8926 8.36133 15.6387 8.36133L14.1855 8.35547C14.0176 8.35547 13.8789 8.30078 13.7695 8.19141L12.7441 7.16016C12.5605 6.98047 12.4199 6.89062 12.3223 6.89062C12.2285 6.89062 12.0898 6.98047 11.9062 7.16016L10.8809 8.19141C10.7715 8.30078 10.6328 8.35547 10.4648 8.35547L9.01172 8.36133C8.75391 8.36133 8.58984 8.39648 8.51953 8.4668C8.45312 8.53711 8.41992 8.69922 8.41992 8.95312V10.4062C8.41602 10.5703 8.35938 10.709 8.25 10.8223L7.21875 11.8477C7.03906 12.0312 6.94922 12.1719 6.94922 12.2695C6.94922 12.3672 7.03906 12.5059 7.21875 12.6855L8.25 13.7109C8.35938 13.8242 8.41406 13.9629 8.41406 14.127V15.5801C8.41797 15.834 8.45508 15.9961 8.52539 16.0664C8.5957 16.1367 8.75781 16.1719 9.01172 16.1719ZM10.5293 14.6953C10.3535 14.6953 10.2031 14.6348 10.0781 14.5137C9.95703 14.3887 9.89648 14.2363 9.89648 14.0566C9.89648 13.8926 9.96094 13.748 10.0898 13.623L11.4375 12.2695L10.0898 10.9219C9.96094 10.7969 9.89648 10.6504 9.89648 10.4824C9.89648 10.3066 9.95703 10.1582 10.0781 10.0371C10.2031 9.91602 10.3535 9.85547 10.5293 9.85547C10.7168 9.85547 10.8711 9.91797 10.9922 10.043L12.3281 11.3789L13.6816 10.0371C13.8066 9.91211 13.959 9.84961 14.1387 9.84961C14.3184 9.84961 14.4688 9.91016 14.5898 10.0312C14.7109 10.1523 14.7715 10.3027 14.7715 10.4824C14.7715 10.6465 14.707 10.791 14.5781 10.916L13.2363 12.2695L14.5781 13.6172C14.7031 13.7461 14.7656 13.8926 14.7656 14.0566C14.7656 14.2363 14.7051 14.3887 14.584 14.5137C14.4629 14.6348 14.3145 14.6953 14.1387 14.6953C13.9512 14.6953 13.7949 14.6328 13.6699 14.5078L12.3281 13.1719L10.998 14.5078C10.873 14.6328 10.7168 14.6953 10.5293 14.6953Z" fill="#FF5A5A"/>
</svg>
