<svg id="svg-rating-2" viewBox="0 0 24 25" fill="none" xmlns="http://www.w3.org/2000/svg">
<path d="M15.191 1.87415C15.4879 1.54646 16.1458 1.78491 16.0164 2.17306L13.2895 10.3544C13.0325 11.1259 13.7785 11.8787 14.8002 11.8787H16.8114C17.5069 11.8787 17.9193 12.4856 17.529 12.9347L8.68323 23.1196C8.38484 23.4626 7.70192 23.2069 7.85881 22.8106L10.8567 15.2376C11.1666 14.4542 10.4163 13.6606 9.36568 13.6606H6.18976C5.48662 13.6606 5.07561 13.0417 5.48181 12.5935L15.191 1.87415Z" fill="#2AABEE"/>
<path d="M12.7302 9.62365C12.5675 10.1121 12.8072 10.5923 13.2634 10.8797C13.224 10.7118 13.2293 10.5338 13.2889 10.3548L16.0158 2.17305C16.1251 1.84487 15.6727 1.62417 15.3507 1.76091L12.7302 9.62365Z" fill="#90D9FF"/>
<path d="M10.3427 13.9293C10.2132 13.3756 9.59385 12.9294 8.80601 12.9294H5.63057C5.52277 12.9294 5.4217 12.9145 5.32978 12.8886C5.25951 13.2724 5.6325 13.6606 6.18933 13.6606H9.36476C9.74112 13.6606 10.0785 13.7628 10.3427 13.9293Z" fill="#90D9FF"/>
<path d="M17.1113 11.9199C17.0935 12.0168 17.0483 12.1138 16.9694 12.204L8.12359 22.3889C8.08268 22.4359 8.03407 22.4714 7.98209 22.4973L7.85793 22.8111C7.70103 23.2074 8.38444 23.4631 8.68234 23.1201L17.5281 12.9351C17.8578 12.5556 17.6143 12.0634 17.1109 11.9199H17.1113Z" fill="#90D9FF"/>
<path d="M15.5607 1.71968C15.8355 1.71968 16.1031 1.91255 16.0165 2.17308L13.2896 10.3544C13.0326 11.1259 13.7786 11.8787 14.8003 11.8787H16.8116C17.507 11.8787 17.9195 12.4856 17.5291 12.9347L8.68335 23.1196C8.58566 23.2319 8.44657 23.2803 8.30941 23.2803C8.02738 23.2803 7.75306 23.0774 7.85845 22.8106L10.8563 15.2377C11.1662 14.4542 10.4159 13.6606 9.36532 13.6606H6.18988C5.48674 13.6606 5.07574 13.0417 5.48193 12.5936L15.1911 1.87417C15.2888 1.76622 15.426 1.71968 15.5607 1.71968ZM15.5607 1C15.2056 1 14.8841 1.13914 14.6555 1.39199L4.94579 12.1114C4.59302 12.501 4.50254 13.0316 4.70997 13.4965C4.94916 14.0334 5.53006 14.3803 6.18988 14.3803H9.36532C9.77536 14.3803 10.0429 14.5592 10.1474 14.7128C10.2263 14.8284 10.209 14.9133 10.1849 14.9738L7.18708 22.5467C7.06099 22.8658 7.09804 23.2093 7.28911 23.4895C7.50376 23.8042 7.89503 24 8.30941 24C8.66795 24 9.00292 23.8508 9.22912 23.5907L18.0749 13.4058C18.4147 13.0148 18.4951 12.4875 18.2857 12.0303C18.0431 11.5011 17.4646 11.159 16.8116 11.159H14.8003C14.4004 11.159 14.1328 10.9858 14.0255 10.8371C13.9422 10.7219 13.9567 10.636 13.9749 10.5813L16.7014 2.40002C16.8063 2.08576 16.7553 1.75231 16.5623 1.48554C16.3457 1.18616 15.9616 1 15.5607 1Z" fill="#0088CF"/>
</svg>