<svg id="svg-rating-2" viewBox="0 0 24 25" fill="none" xmlns="http://www.w3.org/2000/svg">
<g clip-path="url(#clip0_127_155)">
<g filter="url(#filter0_i_127_155)">
<path d="M16.11 1.15869C16.414 0.821966 17.0878 1.06692 16.9553 1.46597L14.1621 9.87263C13.8988 10.6652 14.663 11.4388 15.7094 11.4388H17.7697C18.4821 11.4388 18.9045 12.0624 18.5049 12.5239L9.4437 22.9889C9.13829 23.3416 8.43829 23.0786 8.59896 22.6715L11.6699 14.8899C11.9876 14.085 11.2188 13.2694 10.1424 13.2694H6.88972C6.16936 13.2694 5.74864 12.6335 6.16441 12.173L16.11 1.15869Z" fill="#2AABEE"/>
</g>
<path d="M17.3933 1.6115L17.3933 1.61149C17.4731 1.37131 17.4309 1.1335 17.3057 0.946008C17.1896 0.772027 17.0181 0.662294 16.854 0.602648C16.5395 0.488317 16.0787 0.504697 15.7674 0.849376L5.82186 11.8637C5.46631 12.2575 5.4621 12.7646 5.71609 13.1485C5.95655 13.512 6.3972 13.7309 6.88972 13.7309H10.1424C10.5675 13.7309 10.9024 13.8921 11.0931 14.0944C11.2775 14.2901 11.3236 14.5102 11.2406 14.7205L8.16965 22.502C8.07468 22.7427 8.10491 22.989 8.22896 23.1872C8.34312 23.3697 8.51794 23.4847 8.68419 23.5472C9.00233 23.6667 9.47848 23.6538 9.79262 23.291L18.8538 12.8261L18.8538 12.826C19.1978 12.4287 19.1918 11.9263 18.9364 11.5494C18.6942 11.1919 18.257 10.9773 17.7697 10.9773H15.7094C15.2966 10.9773 14.9664 10.8244 14.7729 10.6286C14.5846 10.4379 14.5322 10.2225 14.6001 10.0182L14.1621 9.87263L14.6001 10.0182L17.3933 1.6115Z" stroke="#0088CF" stroke-width="0.923077"/>
</g>
<defs>
<filter id="filter0_i_127_155" x="5.07703" y="0.078186" width="14.5052" height="23.9973" filterUnits="userSpaceOnUse" color-interpolation-filters="sRGB">
<feFlood flood-opacity="0" result="BackgroundImageFix"/>
<feBlend mode="normal" in="SourceGraphic" in2="BackgroundImageFix" result="shape"/>
<feColorMatrix in="SourceAlpha" type="matrix" values="0 0 0 0 0 0 0 0 0 0 0 0 0 0 0 0 0 0 127 0" result="hardAlpha"/>
<feOffset dx="-0.923077" dy="-1.84615"/>
<feComposite in2="hardAlpha" operator="arithmetic" k2="-1" k3="1"/>
<feColorMatrix type="matrix" values="0 0 0 0 0.563053 0 0 0 0 0.850636 0 0 0 0 1 0 0 0 1 0"/>
<feBlend mode="normal" in2="shape" result="effect1_innerShadow_127_155"/>
</filter>
<clipPath id="clip0_127_155">
<rect width="24" height="24" fill="white" transform="translate(0 0.5)"/>
</clipPath>
</defs>
</svg>
