<svg id="svg-settings" viewBox="0 0 22 22" fill="none" xmlns="http://www.w3.org/2000/svg">
<path fill-rule="evenodd" clip-rule="evenodd" d="M10.1729 2.75C9.90641 2.75 9.64704 2.83591 9.43325 2.99498C9.21946 3.15404 9.06264 3.37779 8.98607 3.63303L8.69986 4.58706C8.62261 4.84457 8.32852 4.96639 8.09181 4.83893L7.2148 4.36669C6.98018 4.24036 6.71108 4.19302 6.44743 4.23172C6.18377 4.27041 5.93962 4.39307 5.75119 4.5815L4.58148 5.75121C4.39305 5.93964 4.27039 6.18379 4.2317 6.44744C4.19301 6.71109 4.24034 6.98019 4.36667 7.21481L4.83891 8.09182C4.96637 8.32853 4.84456 8.62261 4.58705 8.69987L3.63303 8.98607C3.37779 9.06264 3.15404 9.21946 2.99497 9.43325C2.83591 9.64704 2.75 9.90641 2.75 10.1729V11.8271C2.75 12.0936 2.8359 12.353 2.99497 12.5668C3.15404 12.7806 3.3778 12.9374 3.63305 13.014L4.58707 13.3002C4.84457 13.3774 4.96638 13.6715 4.83892 13.9082L4.3667 14.7852C4.24036 15.0198 4.19303 15.2889 4.23173 15.5526C4.27042 15.8162 4.39308 16.0604 4.58151 16.2488L5.75121 17.4185C5.93964 17.6069 6.18381 17.7296 6.44746 17.7683C6.7111 17.807 6.98019 17.7597 7.2148 17.6333L8.09181 17.1611C8.32852 17.0336 8.62261 17.1554 8.69986 17.413L8.98607 18.367C9.06264 18.6222 9.21945 18.8459 9.43324 19.005C9.64704 19.1641 9.90642 19.25 10.1729 19.25H11.8271C12.0936 19.25 12.353 19.1641 12.5668 19.005C12.7806 18.846 12.9374 18.6222 13.014 18.3669L13.3002 17.4129C13.3774 17.1554 13.6715 17.0336 13.9082 17.1611L14.7851 17.6333C15.0198 17.7596 15.289 17.807 15.5526 17.7682C15.8163 17.7295 16.0604 17.6069 16.2488 17.4185L17.4185 16.2488C17.6069 16.0604 17.7296 15.8162 17.7683 15.5525C17.807 15.2889 17.7597 15.0198 17.6333 14.7852L17.1611 13.9081C17.0336 13.6714 17.1554 13.3774 17.4129 13.3001L18.3669 13.014C18.6222 12.9374 18.846 12.7806 19.005 12.5668C19.1641 12.353 19.25 12.0936 19.25 11.8271V10.1729C19.25 9.90642 19.1641 9.64704 19.005 9.43324C18.8459 9.21945 18.6222 9.06264 18.367 8.98607L17.413 8.69986C17.1554 8.62261 17.0336 8.32852 17.1611 8.09181L17.6333 7.21482C17.7597 6.9802 17.807 6.71111 17.7683 6.44747C17.7296 6.18381 17.6069 5.93964 17.4185 5.75121L16.2488 4.58151C16.0604 4.39308 15.8162 4.27042 15.5526 4.23173C15.2889 4.19303 15.0198 4.24036 14.7852 4.3667L13.9082 4.83893C13.6715 4.96639 13.3774 4.84458 13.3002 4.58707L13.014 3.63305C12.9374 3.3778 12.7806 3.15404 12.5668 2.99497C12.353 2.8359 12.0936 2.75 11.8271 2.75H10.1729ZM9.28097 6.50338C9.48012 6.42722 9.63265 6.26298 9.69391 6.05876L10.1167 4.64946C10.2101 4.33818 10.4966 4.125 10.8216 4.125H11.1784C11.5034 4.125 11.7899 4.33818 11.8833 4.64946L12.3061 6.05876C12.3673 6.26298 12.5199 6.42722 12.719 6.50338C12.8016 6.53499 12.8831 6.56881 12.9635 6.60477C13.1582 6.69192 13.3824 6.68372 13.5702 6.58257L14.8661 5.88476C15.1522 5.73076 15.5053 5.78259 15.735 6.01229L15.9877 6.265C16.2174 6.49469 16.2692 6.84784 16.1152 7.13384L15.4174 8.42976C15.3163 8.61761 15.3081 8.84179 15.3952 9.03653C15.4312 9.11689 15.465 9.19838 15.4966 9.28097C15.5728 9.48012 15.7371 9.63265 15.9413 9.69392L17.3505 10.1167C17.6618 10.21 17.875 10.4966 17.875 10.8216V11.1784C17.875 11.5034 17.6618 11.79 17.3505 11.8833L15.9413 12.3061C15.7371 12.3673 15.5728 12.5199 15.4966 12.719C15.465 12.8016 15.4312 12.8831 15.3952 12.9634C15.3081 13.1582 15.3163 13.3824 15.4175 13.5703L16.1152 14.8661C16.2692 15.1522 16.2174 15.5053 15.9877 15.735L15.735 15.9877C15.5053 16.2174 15.1522 16.2692 14.8662 16.1152L13.5702 15.4174C13.3824 15.3163 13.1582 15.3081 12.9635 15.3952C12.8831 15.4312 12.8016 15.465 12.719 15.4966C12.5199 15.5728 12.3673 15.7371 12.3061 15.9413L11.8833 17.3505C11.79 17.6618 11.5034 17.875 11.1784 17.875H10.8216C10.4966 17.875 10.21 17.6618 10.1167 17.3505L9.69392 15.9413C9.63265 15.7371 9.48012 15.5728 9.28097 15.4966C9.19838 15.465 9.11688 15.4312 9.03653 15.3952C8.84179 15.3081 8.61762 15.3163 8.42976 15.4174L7.13384 16.1152C6.84784 16.2692 6.49469 16.2174 6.265 15.9877L6.0123 15.735C5.7826 15.5053 5.73076 15.1522 5.88477 14.8661L6.58257 13.5702C6.68371 13.3824 6.69191 13.1582 6.60477 12.9635C6.56881 12.8831 6.53499 12.8016 6.50338 12.719C6.42722 12.5199 6.26298 12.3673 6.05876 12.3061L4.64946 11.8833C4.33818 11.7899 4.125 11.5034 4.125 11.1784V10.8216C4.125 10.4966 4.33818 10.2101 4.64946 10.1167L6.05876 9.69391C6.26298 9.63265 6.42722 9.48012 6.50338 9.28097C6.53498 9.19838 6.5688 9.1169 6.60476 9.03655C6.6919 8.8418 6.6837 8.61764 6.58255 8.42979L5.88475 7.13387C5.73074 6.84785 5.78258 6.49467 6.01228 6.26496L6.26495 6.01229C6.49465 5.78259 6.84783 5.73075 7.13385 5.88476L8.42975 6.58256C8.61761 6.68371 8.84178 6.69192 9.03653 6.60477C9.11689 6.56881 9.19838 6.53499 9.28097 6.50338ZM13.0625 11C13.0625 12.1391 12.1391 13.0625 11 13.0625C9.86095 13.0625 8.9375 12.1391 8.9375 11C8.9375 9.86095 9.86095 8.9375 11 8.9375C12.1391 8.9375 13.0625 9.86095 13.0625 11ZM14.4375 11C14.4375 12.8985 12.8985 14.4375 11 14.4375C9.10152 14.4375 7.5625 12.8985 7.5625 11C7.5625 9.10152 9.10152 7.5625 11 7.5625C12.8985 7.5625 14.4375 9.10152 14.4375 11Z" fill="currentColor"/>
</svg>
