<svg id="svg-star-pixel" viewBox="0 0 16 16" fill="none" xmlns="http://www.w3.org/2000/svg">
<path d="M2.40024 12.8001H3.20024V13.6001H2.40024V12.8001Z" fill="#F3EFFF"/>
<path d="M2.40024 12.0001H3.20024V12.8001H2.40024V12.0001Z" fill="#F3EFFF"/>
<path d="M3.20024 12.8001H4.00024V13.6001H3.20024V12.8001Z" fill="#CABFF7"/>
<path d="M4.00024 12.8001H4.80024V13.6001H4.00024V12.8001Z" fill="#CABFF7"/>
<path d="M3.20024 13.6001H4.00024V14.4001H3.20024V13.6001Z" fill="#F3EFFF"/>
<path d="M4.00024 13.6001H4.80024V14.4001H4.00024V13.6001Z" fill="#CABFF7"/>
<path d="M4.00024 14.4001H4.80024V15.2001H4.00024V14.4001Z" fill="#F3EFFF"/>
<path d="M3.20024 14.4001H4.00024V15.2001H3.20024V14.4001Z" fill="#F3EFFF"/>
<path d="M4.80024 13.6001H5.60024V14.4001H4.80024V13.6001Z" fill="#F3EFFF"/>
<path d="M4.80024 12.8001H5.60024V13.6001H4.80024V12.8001Z" fill="#CABFF7"/>
<path d="M5.60024 12.8001H6.40024V13.6001H5.60024V12.8001Z" fill="#F3EFFF"/>
<path d="M6.40024 12.8001H7.20024V13.6001H6.40024V12.8001Z" fill="#F3EFFF"/>
<path d="M6.40024 12.0001H7.20024V12.8001H6.40024V12.0001Z" fill="#CABFF7"/>
<path d="M7.20024 12.0001H8.00024V12.8001H7.20024V12.0001Z" fill="#F3EFFF"/>
<path d="M8.00024 12.0001H8.80024V12.8001H8.00024V12.0001Z" fill="#F3EFFF"/>
<path d="M8.80024 12.0001H9.60024V12.8001H8.80024V12.0001Z" fill="#CABFF7"/>
<path d="M9.60024 12.0001H10.4002V12.8001H9.60024V12.0001Z" fill="#CABFF7"/>
<path d="M10.4002 12.0001H11.2002V12.8001H10.4002V12.0001Z" fill="#CABFF7"/>
<path d="M11.2002 12.0001H12.0002V12.8001H11.2002V12.0001Z" fill="#CABFF7"/>
<path d="M8.80024 12.8001H9.60024V13.6001H8.80024V12.8001Z" fill="#F3EFFF"/>
<path d="M9.60024 12.8001H10.4002V13.6001H9.60024V12.8001Z" fill="#CABFF7"/>
<path d="M10.4002 12.8001H11.2002V13.6001H10.4002V12.8001Z" fill="#CABFF7"/>
<path d="M11.2002 12.8001H12.0002V13.6001H11.2002V12.8001Z" fill="#CABFF7"/>
<path d="M9.60024 13.6001H10.4002V14.4001H9.60024V13.6001Z" fill="#F3EFFF"/>
<path d="M10.4002 13.6001H11.2002V14.4001H10.4002V13.6001Z" fill="#CABFF7"/>
<path d="M11.2002 13.6001H12.0002V14.4001H11.2002V13.6001Z" fill="#CABFF7"/>
<path d="M12.0002 13.6001H12.8002V14.4001H12.0002V13.6001Z" fill="#9B8CD5"/>
<path d="M11.2002 14.4001H12.0002V15.2001H11.2002V14.4001Z" fill="#F3EFFF"/>
<path d="M10.4002 14.4001H11.2002V15.2001H10.4002V14.4001Z" fill="#F3EFFF"/>
<path d="M12.0002 12.8001H12.8002V13.6001H12.0002V12.8001Z" fill="#9B8CD5"/>
<path d="M12.0002 12.0001H12.8002V12.8001H12.0002V12.0001Z" fill="#9B8CD5"/>
<path d="M12.0002 11.2001H12.8002V12.0001H12.0002V11.2001Z" fill="#9B8CD5"/>
<path d="M12.0002 10.4001H12.8002V11.2001H12.0002V10.4001Z" fill="#9B8CD5"/>
<path d="M11.2002 10.4001H12.0002V11.2001H11.2002V10.4001Z" fill="#CABFF7"/>
<path d="M11.2002 9.60009H12.0002V10.4001H11.2002V9.60009Z" fill="#9B8CD5"/>
<path d="M11.2002 8.80009H12.0002V9.60009H11.2002V8.80009Z" fill="#CABFF7"/>
<path d="M12.0002 8.80009H12.8002V9.60009H12.0002V8.80009Z" fill="#9B8CD5"/>
<path d="M12.0002 8.00009H12.8002V8.80009H12.0002V8.00009Z" fill="#CABFF7"/>
<path d="M12.8002 8.00009H13.6002V8.80009H12.8002V8.00009Z" fill="#9B8CD5"/>
<path d="M12.8002 7.20009H13.6002V8.00009H12.8002V7.20009Z" fill="#CABFF7"/>
<path d="M13.6002 7.20009H14.4002V8.00009H13.6002V7.20009Z" fill="#9B8CD5"/>
<path d="M13.6002 6.40009H14.4002V7.20009H13.6002V6.40009Z" fill="#CABFF7"/>
<path d="M14.4002 6.40009H15.2002V7.20009H14.4002V6.40009Z" fill="#9B8CD5"/>
<path d="M14.4002 5.60009H15.2002V6.40009H14.4002V5.60009Z" fill="#9B8CD5"/>
<path d="M13.6002 5.60009H14.4002V6.40009H13.6002V5.60009Z" fill="#CABFF7"/>
<path d="M13.6002 4.80009H14.4002V5.60009H13.6002V4.80009Z" fill="#9B8CD5"/>
<path d="M12.8002 4.80009H13.6002V5.60009H12.8002V4.80009Z" fill="#9B8CD5"/>
<path d="M12.0002 4.80009H12.8002V5.60009H12.0002V4.80009Z" fill="#9B8CD5"/>
<path d="M11.2002 4.80009H12.0002V5.60009H11.2002V4.80009Z" fill="#9B8CD5"/>
<path d="M10.4002 4.80009H11.2002V5.60009H10.4002V4.80009Z" fill="#9B8CD5"/>
<path d="M9.60024 4.80009H10.4002V5.60009H9.60024V4.80009Z" fill="#CABFF7"/>
<path d="M9.60024 4.00009H10.4002V4.80009H9.60024V4.00009Z" fill="#9B8CD5"/>
<path d="M9.60024 3.20009H10.4002V4.00009H9.60024V3.20009Z" fill="#9B8CD5"/>
<path d="M8.80024 3.20009H9.60024V4.00009H8.80024V3.20009Z" fill="#CABFF7"/>
<path d="M8.80024 2.40009H9.60024V3.20009H8.80024V2.40009Z" fill="#9B8CD5"/>
<path d="M8.80024 1.60009H9.60024V2.40009H8.80024V1.60009Z" fill="#9B8CD5"/>
<path d="M8.00024 1.60009H8.80024V2.40009H8.00024V1.60009Z" fill="#CABFF7"/>
<path d="M8.00024 0.800092H8.80024V1.60009H8.00024V0.800092Z" fill="#9B8CD5"/>
<path d="M7.20024 0.800092H8.00024V1.60009H7.20024V0.800092Z" fill="#CABFF7"/>
<path d="M7.20024 9.15527e-05H8.00024V0.800092H7.20024V9.15527e-05Z" fill="#9B8CD5"/>
<path d="M6.40024 9.15527e-05H7.20024V0.800092H6.40024V9.15527e-05Z" fill="#9B8CD5"/>
<path d="M6.40024 0.800092H7.20024V1.60009H6.40024V0.800092Z" fill="#F3EFFF"/>
<path d="M6.40024 1.60009H7.20024V2.40009H6.40024V1.60009Z" fill="#F3EFFF"/>
<path d="M6.40024 2.40009H7.20024V3.20009H6.40024V2.40009Z" fill="#CABFF7"/>
<path d="M5.60024 2.40009H6.40024V3.20009H5.60024V2.40009Z" fill="#F3EFFF"/>
<path d="M5.60024 3.20009H6.40024V4.00009H5.60024V3.20009Z" fill="#F3EFFF"/>
<path d="M5.60024 4.00009H6.40024V4.80009H5.60024V4.00009Z" fill="#F3EFFF"/>
<path d="M5.60024 4.80009H6.40024V5.60009H5.60024V4.80009Z" fill="#CABFF7"/>
<path d="M4.80024 4.80009H5.60024V5.60009H4.80024V4.80009Z" fill="#F3EFFF"/>
<path d="M4.00024 4.80009H4.80024V5.60009H4.00024V4.80009Z" fill="#F3EFFF"/>
<path d="M3.20024 4.80009H4.00024V5.60009H3.20024V4.80009Z" fill="#F3EFFF"/>
<path d="M3.20024 12.0001H4.00024V12.8001H3.20024V12.0001Z" fill="#CABFF7"/>
<path d="M4.00024 12.0001H4.80024V12.8001H4.00024V12.0001Z" fill="#CABFF7"/>
<path d="M4.80024 12.0001H5.60024V12.8001H4.80024V12.0001Z" fill="#CABFF7"/>
<path d="M5.60024 12.0001H6.40024V12.8001H5.60024V12.0001Z" fill="#CABFF7"/>
<path d="M3.20024 11.2001H4.00024V12.0001H3.20024V11.2001Z" fill="#F3EFFF"/>
<path d="M4.00024 11.2001H4.80024V12.0001H4.00024V11.2001Z" fill="#CABFF7"/>
<path d="M4.80024 11.2001H5.60024V12.0001H4.80024V11.2001Z" fill="#CABFF7"/>
<path d="M5.60024 11.2001H6.40024V12.0001H5.60024V11.2001Z" fill="#CABFF7"/>
<path d="M6.40024 11.2001H7.20024V12.0001H6.40024V11.2001Z" fill="#CABFF7"/>
<path d="M7.20024 11.2001H8.00024V12.0001H7.20024V11.2001Z" fill="#CABFF7"/>
<path d="M8.00024 11.2001H8.80024V12.0001H8.00024V11.2001Z" fill="#CABFF7"/>
<path d="M8.80024 11.2001H9.60024V12.0001H8.80024V11.2001Z" fill="#CABFF7"/>
<path d="M9.60024 11.2001H10.4002V12.0001H9.60024V11.2001Z" fill="#CABFF7"/>
<path d="M10.4002 11.2001H11.2002V12.0001H10.4002V11.2001Z" fill="#CABFF7"/>
<path d="M11.2002 11.2001H12.0002V12.0001H11.2002V11.2001Z" fill="#CABFF7"/>
<path d="M3.20024 10.4001H4.00024V11.2001H3.20024V10.4001Z" fill="#F3EFFF"/>
<path d="M4.00024 10.4001H4.80024V11.2001H4.00024V10.4001Z" fill="#CABFF7"/>
<path d="M4.80024 10.4001H5.60024V11.2001H4.80024V10.4001Z" fill="#CABFF7"/>
<path d="M5.60024 10.4001H6.40024V11.2001H5.60024V10.4001Z" fill="#CABFF7"/>
<path d="M6.40024 10.4001H7.20024V11.2001H6.40024V10.4001Z" fill="#CABFF7"/>
<path d="M7.20024 10.4001H8.00024V11.2001H7.20024V10.4001Z" fill="#CABFF7"/>
<path d="M8.00024 10.4001H8.80024V11.2001H8.00024V10.4001Z" fill="#CABFF7"/>
<path d="M8.80024 10.4001H9.60024V11.2001H8.80024V10.4001Z" fill="#CABFF7"/>
<path d="M9.60024 10.4001H10.4002V11.2001H9.60024V10.4001Z" fill="#CABFF7"/>
<path d="M10.4002 10.4001H11.2002V11.2001H10.4002V10.4001Z" fill="#CABFF7"/>
<path d="M4.00024 9.60009H4.80024V10.4001H4.00024V9.60009Z" fill="#F3EFFF"/>
<path d="M4.80024 9.60009H5.60024V10.4001H4.80024V9.60009Z" fill="#CABFF7"/>
<path d="M5.60024 9.60009H6.40024V10.4001H5.60024V9.60009Z" fill="#CABFF7"/>
<path d="M6.40024 9.60009H7.20024V10.4001H6.40024V9.60009Z" fill="#CABFF7"/>
<path d="M7.20024 9.60009H8.00024V10.4001H7.20024V9.60009Z" fill="#CABFF7"/>
<path d="M8.00024 9.60009H8.80024V10.4001H8.00024V9.60009Z" fill="#CABFF7"/>
<path d="M8.80024 9.60009H9.60024V10.4001H8.80024V9.60009Z" fill="#CABFF7"/>
<path d="M9.60024 9.60009H10.4002V10.4001H9.60024V9.60009Z" fill="#CABFF7"/>
<path d="M10.4002 9.60009H11.2002V10.4001H10.4002V9.60009Z" fill="#CABFF7"/>
<path d="M4.00024 8.80009H4.80024V9.60009H4.00024V8.80009Z" fill="#F3EFFF"/>
<path d="M4.80024 8.80009H5.60024V9.60009H4.80024V8.80009Z" fill="#CABFF7"/>
<path d="M5.60024 8.80009H6.40024V9.60009H5.60024V8.80009Z" fill="#CABFF7"/>
<path d="M6.40024 8.80009H7.20024V9.60009H6.40024V8.80009Z" fill="#CABFF7"/>
<path d="M7.20024 8.80009H8.00024V9.60009H7.20024V8.80009Z" fill="#CABFF7"/>
<path d="M8.00024 8.80009H8.80024V9.60009H8.00024V8.80009Z" fill="#CABFF7"/>
<path d="M8.80024 8.80009H9.60024V9.60009H8.80024V8.80009Z" fill="#CABFF7"/>
<path d="M9.60024 8.80009H10.4002V9.60009H9.60024V8.80009Z" fill="#CABFF7"/>
<path d="M10.4002 8.80009H11.2002V9.60009H10.4002V8.80009Z" fill="#CABFF7"/>
<path d="M4.00024 8.00009H4.80024V8.80009H4.00024V8.00009Z" fill="#CABFF7"/>
<path d="M4.80024 8.00009H5.60024V8.80009H4.80024V8.00009Z" fill="#CABFF7"/>
<path d="M5.60024 8.00009H6.40024V8.80009H5.60024V8.00009Z" fill="#CABFF7"/>
<path d="M6.40024 8.00009H7.20024V8.80009H6.40024V8.00009Z" fill="#CABFF7"/>
<path d="M7.20024 8.00009H8.00024V8.80009H7.20024V8.00009Z" fill="#CABFF7"/>
<path d="M8.00024 8.00009H8.80024V8.80009H8.00024V8.00009Z" fill="#CABFF7"/>
<path d="M8.80024 8.00009H9.60024V8.80009H8.80024V8.00009Z" fill="#CABFF7"/>
<path d="M9.60024 8.00009H10.4002V8.80009H9.60024V8.00009Z" fill="#CABFF7"/>
<path d="M10.4002 8.00009H11.2002V8.80009H10.4002V8.00009Z" fill="#CABFF7"/>
<path d="M3.20024 8.00009H4.00024V8.80009H3.20024V8.00009Z" fill="#F3EFFF"/>
<path d="M2.40024 8.00009H3.20024V8.80009H2.40024V8.00009Z" fill="#F3EFFF"/>
<path d="M2.40024 7.20009H3.20024V8.00009H2.40024V7.20009Z" fill="#CABFF7"/>
<path d="M3.20024 7.20009H4.00024V8.00009H3.20024V7.20009Z" fill="#CABFF7"/>
<path d="M4.00024 7.20009H4.80024V8.00009H4.00024V7.20009Z" fill="#CABFF7"/>
<path d="M4.80024 7.20009H5.60024V8.00009H4.80024V7.20009Z" fill="#CABFF7"/>
<path d="M5.60024 7.20009H6.40024V8.00009H5.60024V7.20009Z" fill="#CABFF7"/>
<path d="M6.40024 7.20009H7.20024V8.00009H6.40024V7.20009Z" fill="#CABFF7"/>
<path d="M7.20024 7.20009H8.00024V8.00009H7.20024V7.20009Z" fill="#CABFF7"/>
<path d="M8.00024 7.20009H8.80024V8.00009H8.00024V7.20009Z" fill="#CABFF7"/>
<path d="M8.80024 7.20009H9.60024V8.00009H8.80024V7.20009Z" fill="#CABFF7"/>
<path d="M9.60024 7.20009H10.4002V8.00009H9.60024V7.20009Z" fill="#CABFF7"/>
<path d="M10.4002 7.20009H11.2002V8.00009H10.4002V7.20009Z" fill="#CABFF7"/>
<path d="M2.40024 6.40009H3.20024V7.20009H2.40024V6.40009Z" fill="#CABFF7"/>
<path d="M3.20024 6.40009H4.00024V7.20009H3.20024V6.40009Z" fill="#CABFF7"/>
<path d="M4.00024 6.40009H4.80024V7.20009H4.00024V6.40009Z" fill="#CABFF7"/>
<path d="M4.80024 6.40009H5.60024V7.20009H4.80024V6.40009Z" fill="#CABFF7"/>
<path d="M5.60024 6.40009H6.40024V7.20009H5.60024V6.40009Z" fill="#CABFF7"/>
<path d="M6.40024 6.40009H7.20024V7.20009H6.40024V6.40009Z" fill="#CABFF7"/>
<path d="M7.20024 6.40009H8.00024V7.20009H7.20024V6.40009Z" fill="#CABFF7"/>
<path d="M8.00024 6.40009H8.80024V7.20009H8.00024V6.40009Z" fill="#CABFF7"/>
<path d="M8.80024 6.40009H9.60024V7.20009H8.80024V6.40009Z" fill="#CABFF7"/>
<path d="M2.40024 5.60009H3.20024V6.40009H2.40024V5.60009Z" fill="#CABFF7"/>
<path d="M3.20024 5.60009H4.00024V6.40009H3.20024V5.60009Z" fill="#CABFF7"/>
<path d="M4.00024 5.60009H4.80024V6.40009H4.00024V5.60009Z" fill="#CABFF7"/>
<path d="M4.80024 5.60009H5.60024V6.40009H4.80024V5.60009Z" fill="#CABFF7"/>
<path d="M5.60024 5.60009H6.40024V6.40009H5.60024V5.60009Z" fill="#CABFF7"/>
<path d="M6.40024 5.60009H7.20024V6.40009H6.40024V5.60009Z" fill="#CABFF7"/>
<path d="M6.40024 4.80009H7.20024V5.60009H6.40024V4.80009Z" fill="#CABFF7"/>
<path d="M6.40024 4.00009H7.20024V4.80009H6.40024V4.00009Z" fill="#CABFF7"/>
<path d="M6.40024 3.20009H7.20024V4.00009H6.40024V3.20009Z" fill="#CABFF7"/>
<path d="M7.20024 3.20009H8.00024V4.00009H7.20024V3.20009Z" fill="#CABFF7"/>
<path d="M8.00024 3.20009H8.80024V4.00009H8.00024V3.20009Z" fill="#CABFF7"/>
<path d="M8.00024 4.00009H8.80024V4.80009H8.00024V4.00009Z" fill="#CABFF7"/>
<path d="M7.20024 4.00009H8.00024V4.80009H7.20024V4.00009Z" fill="#CABFF7"/>
<path d="M7.20024 4.80009H8.00024V5.60009H7.20024V4.80009Z" fill="#CABFF7"/>
<path d="M7.20024 5.60009H8.00024V6.40009H7.20024V5.60009Z" fill="#CABFF7"/>
<path d="M8.00024 5.60009H8.80024V6.40009H8.00024V5.60009Z" fill="#CABFF7"/>
<path d="M8.80024 5.60009H9.60024V6.40009H8.80024V5.60009Z" fill="#CABFF7"/>
<path d="M9.60024 5.60009H10.4002V6.40009H9.60024V5.60009Z" fill="#CABFF7"/>
<path d="M10.4002 5.60009H11.2002V6.40009H10.4002V5.60009Z" fill="#CABFF7"/>
<path d="M11.2002 5.60009H12.0002V6.40009H11.2002V5.60009Z" fill="#CABFF7"/>
<path d="M12.0002 5.60009H12.8002V6.40009H12.0002V5.60009Z" fill="#CABFF7"/>
<path d="M12.8002 5.60009H13.6002V6.40009H12.8002V5.60009Z" fill="#CABFF7"/>
<path d="M12.8002 6.40009H13.6002V7.20009H12.8002V6.40009Z" fill="#CABFF7"/>
<path d="M12.0002 6.40009H12.8002V7.20009H12.0002V6.40009Z" fill="#CABFF7"/>
<path d="M12.0002 7.20009H12.8002V8.00009H12.0002V7.20009Z" fill="#CABFF7"/>
<path d="M11.2002 7.20009H12.0002V8.00009H11.2002V7.20009Z" fill="#CABFF7"/>
<path d="M11.2002 6.40009H12.0002V7.20009H11.2002V6.40009Z" fill="#CABFF7"/>
<path d="M10.4002 6.40009H11.2002V7.20009H10.4002V6.40009Z" fill="#CABFF7"/>
<path d="M9.60024 6.40009H10.4002V7.20009H9.60024V6.40009Z" fill="#CABFF7"/>
<path d="M11.2002 8.00009H12.0002V8.80009H11.2002V8.00009Z" fill="#CABFF7"/>
<path d="M8.00024 4.80009H8.80024V5.60009H8.00024V4.80009Z" fill="#CABFF7"/>
<path d="M8.80024 4.80009H9.60024V5.60009H8.80024V4.80009Z" fill="#CABFF7"/>
<path d="M8.80024 4.00009H9.60024V4.80009H8.80024V4.00009Z" fill="#CABFF7"/>
<path d="M7.20024 2.40009H8.00024V3.20009H7.20024V2.40009Z" fill="#CABFF7"/>
<path d="M8.00024 2.40009H8.80024V3.20009H8.00024V2.40009Z" fill="#CABFF7"/>
<path d="M7.20024 1.60009H8.00024V2.40009H7.20024V1.60009Z" fill="#CABFF7"/>
<path d="M2.40024 4.80009H3.20024V5.60009H2.40024V4.80009Z" fill="#F3EFFF"/>
<path d="M1.60024 4.80009H2.40024V5.60009H1.60024V4.80009Z" fill="#F3EFFF"/>
<path d="M0.800244 4.80009H1.60024V5.60009H0.800244V4.80009Z" fill="#F3EFFF"/>
<path d="M0.800244 5.60009H1.60024V6.40009H0.800244V5.60009Z" fill="#CABFF7"/>
<path d="M0.000244141 5.60009H0.800244V6.40009H0.000244141V5.60009Z" fill="#F3EFFF"/>
<path d="M0.000244141 6.40009H0.800244V7.20009H0.000244141V6.40009Z" fill="#F3EFFF"/>
<path d="M1.60024 5.60009H2.40024V6.40009H1.60024V5.60009Z" fill="#CABFF7"/>
<path d="M1.60024 6.40009H2.40024V7.20009H1.60024V6.40009Z" fill="#CABFF7"/>
<path d="M0.800244 6.40009H1.60024V7.20009H0.800244V6.40009Z" fill="#CABFF7"/>
<path d="M0.800244 7.20009H1.60024V8.00009H0.800244V7.20009Z" fill="#F3EFFF"/>
<path d="M1.60024 7.20009H2.40024V8.00009H1.60024V7.20009Z" fill="#F3EFFF"/>
</svg>
