<svg viewBox="0 0 18 18" fill="none" xmlns="http://www.w3.org/2000/svg">
<path fill-rule="evenodd" clip-rule="evenodd" d="M8.53549 14.6282L4.50802 16.931C4.08924 17.1704 3.54177 17.0477 3.28523 16.6568C3.15992 16.4659 3.12257 16.2359 3.18162 16.0189L3.80508 13.7286C4.03013 12.9018 4.63631 12.2107 5.46023 11.8415L9.85401 9.87259C10.0588 9.7808 10.1452 9.55141 10.0468 9.36023C9.96719 9.20539 9.78707 9.11875 9.60575 9.14806L4.71492 9.93833C3.72072 10.099 2.70119 9.84274 1.92785 9.23788L0.382796 8.02939C0.00638062 7.73497 -0.0430442 7.2115 0.272403 6.86018C0.425825 6.6893 0.646448 6.58322 0.884583 6.56584L5.60518 6.22103C5.93868 6.19667 6.22932 5.99969 6.35735 5.71124L8.17848 1.60824C8.36644 1.18476 8.88662 0.983681 9.34035 1.15911C9.5582 1.24334 9.7313 1.4049 9.82155 1.60824L11.6427 5.71124C11.7707 5.99969 12.0613 6.19667 12.3948 6.22103L17.1414 6.56773C17.631 6.60349 17.9968 7.00294 17.9585 7.45992C17.9401 7.67975 17.8286 7.8837 17.6489 8.02675L14.029 10.9071C13.774 11.1099 13.6629 11.4291 13.7412 11.733L14.8541 16.048C14.9691 16.4936 14.6752 16.9418 14.1978 17.0491C13.9683 17.1007 13.7263 17.065 13.5251 16.9499L9.46454 14.6282C9.17947 14.4653 8.82055 14.4653 8.53549 14.6282Z" fill="url(#paint0_linear_55_1984)" fill-opacity="0.75"/>
<defs>
<linearGradient id="paint0_linear_55_1984" x1="3.07846e-05" y1="1" x2="18" y2="17" gradientUnits="userSpaceOnUse">
<stop stop-color="white"/>
<stop offset="1" stop-color="white" stop-opacity="0.25"/>
</linearGradient>
</defs>
</svg>