<svg id="svg-star-pixel-dark" viewBox="0 0 16 16" fill="none" xmlns="http://www.w3.org/2000/svg">
<path d="M2.40018 12.8001H3.20018V13.6001H2.40018V12.8001Z" fill="#B9A6FC"/>
<path d="M2.40018 12.0001H3.20018V12.8001H2.40018V12.0001Z" fill="#B9A6FC"/>
<path d="M3.20018 12.8001H4.00018V13.6001H3.20018V12.8001Z" fill="#7864BF"/>
<path d="M4.00018 12.8001H4.80018V13.6001H4.00018V12.8001Z" fill="#7864BF"/>
<path d="M3.20018 13.6001H4.00018V14.4001H3.20018V13.6001Z" fill="#B9A6FC"/>
<path d="M4.00018 13.6001H4.80018V14.4001H4.00018V13.6001Z" fill="#7864BF"/>
<path d="M4.00018 14.4001H4.80018V15.2001H4.00018V14.4001Z" fill="#B9A6FC"/>
<path d="M3.20018 14.4001H4.00018V15.2001H3.20018V14.4001Z" fill="#B9A6FC"/>
<path d="M4.80018 13.6001H5.60018V14.4001H4.80018V13.6001Z" fill="#B9A6FC"/>
<path d="M4.80018 12.8001H5.60018V13.6001H4.80018V12.8001Z" fill="#7864BF"/>
<path d="M5.60018 12.8001H6.40018V13.6001H5.60018V12.8001Z" fill="#B9A6FC"/>
<path d="M6.40018 12.8001H7.20018V13.6001H6.40018V12.8001Z" fill="#B9A6FC"/>
<path d="M6.40018 12.0001H7.20018V12.8001H6.40018V12.0001Z" fill="#7864BF"/>
<path d="M7.20018 12.0001H8.00018V12.8001H7.20018V12.0001Z" fill="#B9A6FC"/>
<path d="M8.00018 12.0001H8.80018V12.8001H8.00018V12.0001Z" fill="#B9A6FC"/>
<path d="M8.80018 12.0001H9.60018V12.8001H8.80018V12.0001Z" fill="#7864BF"/>
<path d="M9.60018 12.0001H10.4002V12.8001H9.60018V12.0001Z" fill="#7864BF"/>
<path d="M10.4002 12.0001H11.2002V12.8001H10.4002V12.0001Z" fill="#7864BF"/>
<path d="M11.2002 12.0001H12.0002V12.8001H11.2002V12.0001Z" fill="#7864BF"/>
<path d="M8.80018 12.8001H9.60018V13.6001H8.80018V12.8001Z" fill="#B9A6FC"/>
<path d="M9.60018 12.8001H10.4002V13.6001H9.60018V12.8001Z" fill="#7864BF"/>
<path d="M10.4002 12.8001H11.2002V13.6001H10.4002V12.8001Z" fill="#7864BF"/>
<path d="M11.2002 12.8001H12.0002V13.6001H11.2002V12.8001Z" fill="#7864BF"/>
<path d="M9.60018 13.6001H10.4002V14.4001H9.60018V13.6001Z" fill="#B9A6FC"/>
<path d="M10.4002 13.6001H11.2002V14.4001H10.4002V13.6001Z" fill="#7864BF"/>
<path d="M11.2002 13.6001H12.0002V14.4001H11.2002V13.6001Z" fill="#7864BF"/>
<path d="M12.0002 13.6001H12.8002V14.4001H12.0002V13.6001Z" fill="#5C47A6"/>
<path d="M11.2002 14.4001H12.0002V15.2001H11.2002V14.4001Z" fill="#B9A6FC"/>
<path d="M10.4002 14.4001H11.2002V15.2001H10.4002V14.4001Z" fill="#B9A6FC"/>
<path d="M12.0002 12.8001H12.8002V13.6001H12.0002V12.8001Z" fill="#5C47A6"/>
<path d="M12.0002 12.0001H12.8002V12.8001H12.0002V12.0001Z" fill="#5C47A6"/>
<path d="M12.0002 11.2001H12.8002V12.0001H12.0002V11.2001Z" fill="#5C47A6"/>
<path d="M12.0002 10.4001H12.8002V11.2001H12.0002V10.4001Z" fill="#5C47A6"/>
<path d="M11.2002 10.4001H12.0002V11.2001H11.2002V10.4001Z" fill="#7864BF"/>
<path d="M11.2002 9.60009H12.0002V10.4001H11.2002V9.60009Z" fill="#5C47A6"/>
<path d="M11.2002 8.80009H12.0002V9.60009H11.2002V8.80009Z" fill="#7864BF"/>
<path d="M12.0002 8.80009H12.8002V9.60009H12.0002V8.80009Z" fill="#5C47A6"/>
<path d="M12.0002 8.00009H12.8002V8.80009H12.0002V8.00009Z" fill="#7864BF"/>
<path d="M12.8002 8.00009H13.6002V8.80009H12.8002V8.00009Z" fill="#5C47A6"/>
<path d="M12.8002 7.20009H13.6002V8.00009H12.8002V7.20009Z" fill="#7864BF"/>
<path d="M13.6002 7.20009H14.4002V8.00009H13.6002V7.20009Z" fill="#5C47A6"/>
<path d="M13.6002 6.40009H14.4002V7.20009H13.6002V6.40009Z" fill="#7864BF"/>
<path d="M14.4002 6.40009H15.2002V7.20009H14.4002V6.40009Z" fill="#5C47A6"/>
<path d="M14.4002 5.60009H15.2002V6.40009H14.4002V5.60009Z" fill="#5C47A6"/>
<path d="M13.6002 5.60009H14.4002V6.40009H13.6002V5.60009Z" fill="#7864BF"/>
<path d="M13.6002 4.80009H14.4002V5.60009H13.6002V4.80009Z" fill="#5C47A6"/>
<path d="M12.8002 4.80009H13.6002V5.60009H12.8002V4.80009Z" fill="#5C47A6"/>
<path d="M12.0002 4.80009H12.8002V5.60009H12.0002V4.80009Z" fill="#5C47A6"/>
<path d="M11.2002 4.80009H12.0002V5.60009H11.2002V4.80009Z" fill="#5C47A6"/>
<path d="M10.4002 4.80009H11.2002V5.60009H10.4002V4.80009Z" fill="#5C47A6"/>
<path d="M9.60018 4.80009H10.4002V5.60009H9.60018V4.80009Z" fill="#7864BF"/>
<path d="M9.60018 4.00009H10.4002V4.80009H9.60018V4.00009Z" fill="#5C47A6"/>
<path d="M9.60018 3.20009H10.4002V4.00009H9.60018V3.20009Z" fill="#5C47A6"/>
<path d="M8.80018 3.20009H9.60018V4.00009H8.80018V3.20009Z" fill="#7864BF"/>
<path d="M8.80018 2.40009H9.60018V3.20009H8.80018V2.40009Z" fill="#5C47A6"/>
<path d="M8.80018 1.60009H9.60018V2.40009H8.80018V1.60009Z" fill="#5C47A6"/>
<path d="M8.00018 1.60009H8.80018V2.40009H8.00018V1.60009Z" fill="#7864BF"/>
<path d="M8.00018 0.800092H8.80018V1.60009H8.00018V0.800092Z" fill="#5C47A6"/>
<path d="M7.20018 0.800092H8.00018V1.60009H7.20018V0.800092Z" fill="#7864BF"/>
<path d="M7.20018 9.15527e-05H8.00018V0.800092H7.20018V9.15527e-05Z" fill="#5C47A6"/>
<path d="M6.40018 9.15527e-05H7.20018V0.800092H6.40018V9.15527e-05Z" fill="#5C47A6"/>
<path d="M6.40018 0.800092H7.20018V1.60009H6.40018V0.800092Z" fill="#B9A6FC"/>
<path d="M6.40018 1.60009H7.20018V2.40009H6.40018V1.60009Z" fill="#B9A6FC"/>
<path d="M6.40018 2.40009H7.20018V3.20009H6.40018V2.40009Z" fill="#7864BF"/>
<path d="M5.60018 2.40009H6.40018V3.20009H5.60018V2.40009Z" fill="#B9A6FC"/>
<path d="M5.60018 3.20009H6.40018V4.00009H5.60018V3.20009Z" fill="#B9A6FC"/>
<path d="M5.60018 4.00009H6.40018V4.80009H5.60018V4.00009Z" fill="#B9A6FC"/>
<path d="M5.60018 4.80009H6.40018V5.60009H5.60018V4.80009Z" fill="#7864BF"/>
<path d="M4.80018 4.80009H5.60018V5.60009H4.80018V4.80009Z" fill="#B9A6FC"/>
<path d="M4.00018 4.80009H4.80018V5.60009H4.00018V4.80009Z" fill="#B9A6FC"/>
<path d="M3.20018 4.80009H4.00018V5.60009H3.20018V4.80009Z" fill="#B9A6FC"/>
<path d="M3.20018 12.0001H4.00018V12.8001H3.20018V12.0001Z" fill="#7864BF"/>
<path d="M4.00018 12.0001H4.80018V12.8001H4.00018V12.0001Z" fill="#7864BF"/>
<path d="M4.80018 12.0001H5.60018V12.8001H4.80018V12.0001Z" fill="#7864BF"/>
<path d="M5.60018 12.0001H6.40018V12.8001H5.60018V12.0001Z" fill="#7864BF"/>
<path d="M3.20018 11.2001H4.00018V12.0001H3.20018V11.2001Z" fill="#B9A6FC"/>
<path d="M4.00018 11.2001H4.80018V12.0001H4.00018V11.2001Z" fill="#7864BF"/>
<path d="M4.80018 11.2001H5.60018V12.0001H4.80018V11.2001Z" fill="#7864BF"/>
<path d="M5.60018 11.2001H6.40018V12.0001H5.60018V11.2001Z" fill="#7864BF"/>
<path d="M6.40018 11.2001H7.20018V12.0001H6.40018V11.2001Z" fill="#7864BF"/>
<path d="M7.20018 11.2001H8.00018V12.0001H7.20018V11.2001Z" fill="#7864BF"/>
<path d="M8.00018 11.2001H8.80018V12.0001H8.00018V11.2001Z" fill="#7864BF"/>
<path d="M8.80018 11.2001H9.60018V12.0001H8.80018V11.2001Z" fill="#7864BF"/>
<path d="M9.60018 11.2001H10.4002V12.0001H9.60018V11.2001Z" fill="#7864BF"/>
<path d="M10.4002 11.2001H11.2002V12.0001H10.4002V11.2001Z" fill="#7864BF"/>
<path d="M11.2002 11.2001H12.0002V12.0001H11.2002V11.2001Z" fill="#7864BF"/>
<path d="M3.20018 10.4001H4.00018V11.2001H3.20018V10.4001Z" fill="#B9A6FC"/>
<path d="M4.00018 10.4001H4.80018V11.2001H4.00018V10.4001Z" fill="#7864BF"/>
<path d="M4.80018 10.4001H5.60018V11.2001H4.80018V10.4001Z" fill="#7864BF"/>
<path d="M5.60018 10.4001H6.40018V11.2001H5.60018V10.4001Z" fill="#7864BF"/>
<path d="M6.40018 10.4001H7.20018V11.2001H6.40018V10.4001Z" fill="#7864BF"/>
<path d="M7.20018 10.4001H8.00018V11.2001H7.20018V10.4001Z" fill="#7864BF"/>
<path d="M8.00018 10.4001H8.80018V11.2001H8.00018V10.4001Z" fill="#7864BF"/>
<path d="M8.80018 10.4001H9.60018V11.2001H8.80018V10.4001Z" fill="#7864BF"/>
<path d="M9.60018 10.4001H10.4002V11.2001H9.60018V10.4001Z" fill="#7864BF"/>
<path d="M10.4002 10.4001H11.2002V11.2001H10.4002V10.4001Z" fill="#7864BF"/>
<path d="M4.00018 9.60009H4.80018V10.4001H4.00018V9.60009Z" fill="#B9A6FC"/>
<path d="M4.80018 9.60009H5.60018V10.4001H4.80018V9.60009Z" fill="#7864BF"/>
<path d="M5.60018 9.60009H6.40018V10.4001H5.60018V9.60009Z" fill="#7864BF"/>
<path d="M6.40018 9.60009H7.20018V10.4001H6.40018V9.60009Z" fill="#7864BF"/>
<path d="M7.20018 9.60009H8.00018V10.4001H7.20018V9.60009Z" fill="#7864BF"/>
<path d="M8.00018 9.60009H8.80018V10.4001H8.00018V9.60009Z" fill="#7864BF"/>
<path d="M8.80018 9.60009H9.60018V10.4001H8.80018V9.60009Z" fill="#7864BF"/>
<path d="M9.60018 9.60009H10.4002V10.4001H9.60018V9.60009Z" fill="#7864BF"/>
<path d="M10.4002 9.60009H11.2002V10.4001H10.4002V9.60009Z" fill="#7864BF"/>
<path d="M4.00018 8.80009H4.80018V9.60009H4.00018V8.80009Z" fill="#B9A6FC"/>
<path d="M4.80018 8.80009H5.60018V9.60009H4.80018V8.80009Z" fill="#7864BF"/>
<path d="M5.60018 8.80009H6.40018V9.60009H5.60018V8.80009Z" fill="#7864BF"/>
<path d="M6.40018 8.80009H7.20018V9.60009H6.40018V8.80009Z" fill="#7864BF"/>
<path d="M7.20018 8.80009H8.00018V9.60009H7.20018V8.80009Z" fill="#7864BF"/>
<path d="M8.00018 8.80009H8.80018V9.60009H8.00018V8.80009Z" fill="#7864BF"/>
<path d="M8.80018 8.80009H9.60018V9.60009H8.80018V8.80009Z" fill="#7864BF"/>
<path d="M9.60018 8.80009H10.4002V9.60009H9.60018V8.80009Z" fill="#7864BF"/>
<path d="M10.4002 8.80009H11.2002V9.60009H10.4002V8.80009Z" fill="#7864BF"/>
<path d="M4.00018 8.00009H4.80018V8.80009H4.00018V8.00009Z" fill="#7864BF"/>
<path d="M4.80018 8.00009H5.60018V8.80009H4.80018V8.00009Z" fill="#7864BF"/>
<path d="M5.60018 8.00009H6.40018V8.80009H5.60018V8.00009Z" fill="#7864BF"/>
<path d="M6.40018 8.00009H7.20018V8.80009H6.40018V8.00009Z" fill="#7864BF"/>
<path d="M7.20018 8.00009H8.00018V8.80009H7.20018V8.00009Z" fill="#7864BF"/>
<path d="M8.00018 8.00009H8.80018V8.80009H8.00018V8.00009Z" fill="#7864BF"/>
<path d="M8.80018 8.00009H9.60018V8.80009H8.80018V8.00009Z" fill="#7864BF"/>
<path d="M9.60018 8.00009H10.4002V8.80009H9.60018V8.00009Z" fill="#7864BF"/>
<path d="M10.4002 8.00009H11.2002V8.80009H10.4002V8.00009Z" fill="#7864BF"/>
<path d="M3.20018 8.00009H4.00018V8.80009H3.20018V8.00009Z" fill="#B9A6FC"/>
<path d="M2.40018 8.00009H3.20018V8.80009H2.40018V8.00009Z" fill="#B9A6FC"/>
<path d="M2.40018 7.20009H3.20018V8.00009H2.40018V7.20009Z" fill="#7864BF"/>
<path d="M3.20018 7.20009H4.00018V8.00009H3.20018V7.20009Z" fill="#7864BF"/>
<path d="M4.00018 7.20009H4.80018V8.00009H4.00018V7.20009Z" fill="#7864BF"/>
<path d="M4.80018 7.20009H5.60018V8.00009H4.80018V7.20009Z" fill="#7864BF"/>
<path d="M5.60018 7.20009H6.40018V8.00009H5.60018V7.20009Z" fill="#7864BF"/>
<path d="M6.40018 7.20009H7.20018V8.00009H6.40018V7.20009Z" fill="#7864BF"/>
<path d="M7.20018 7.20009H8.00018V8.00009H7.20018V7.20009Z" fill="#7864BF"/>
<path d="M8.00018 7.20009H8.80018V8.00009H8.00018V7.20009Z" fill="#7864BF"/>
<path d="M8.80018 7.20009H9.60018V8.00009H8.80018V7.20009Z" fill="#7864BF"/>
<path d="M9.60018 7.20009H10.4002V8.00009H9.60018V7.20009Z" fill="#7864BF"/>
<path d="M10.4002 7.20009H11.2002V8.00009H10.4002V7.20009Z" fill="#7864BF"/>
<path d="M2.40018 6.40009H3.20018V7.20009H2.40018V6.40009Z" fill="#7864BF"/>
<path d="M3.20018 6.40009H4.00018V7.20009H3.20018V6.40009Z" fill="#7864BF"/>
<path d="M4.00018 6.40009H4.80018V7.20009H4.00018V6.40009Z" fill="#7864BF"/>
<path d="M4.80018 6.40009H5.60018V7.20009H4.80018V6.40009Z" fill="#7864BF"/>
<path d="M5.60018 6.40009H6.40018V7.20009H5.60018V6.40009Z" fill="#7864BF"/>
<path d="M6.40018 6.40009H7.20018V7.20009H6.40018V6.40009Z" fill="#7864BF"/>
<path d="M7.20018 6.40009H8.00018V7.20009H7.20018V6.40009Z" fill="#7864BF"/>
<path d="M8.00018 6.40009H8.80018V7.20009H8.00018V6.40009Z" fill="#7864BF"/>
<path d="M8.80018 6.40009H9.60018V7.20009H8.80018V6.40009Z" fill="#7864BF"/>
<path d="M2.40018 5.60009H3.20018V6.40009H2.40018V5.60009Z" fill="#7864BF"/>
<path d="M3.20018 5.60009H4.00018V6.40009H3.20018V5.60009Z" fill="#7864BF"/>
<path d="M4.00018 5.60009H4.80018V6.40009H4.00018V5.60009Z" fill="#7864BF"/>
<path d="M4.80018 5.60009H5.60018V6.40009H4.80018V5.60009Z" fill="#7864BF"/>
<path d="M5.60018 5.60009H6.40018V6.40009H5.60018V5.60009Z" fill="#7864BF"/>
<path d="M6.40018 5.60009H7.20018V6.40009H6.40018V5.60009Z" fill="#7864BF"/>
<path d="M6.40018 4.80009H7.20018V5.60009H6.40018V4.80009Z" fill="#7864BF"/>
<path d="M6.40018 4.00009H7.20018V4.80009H6.40018V4.00009Z" fill="#7864BF"/>
<path d="M6.40018 3.20009H7.20018V4.00009H6.40018V3.20009Z" fill="#7864BF"/>
<path d="M7.20018 3.20009H8.00018V4.00009H7.20018V3.20009Z" fill="#7864BF"/>
<path d="M8.00018 3.20009H8.80018V4.00009H8.00018V3.20009Z" fill="#7864BF"/>
<path d="M8.00018 4.00009H8.80018V4.80009H8.00018V4.00009Z" fill="#7864BF"/>
<path d="M7.20018 4.00009H8.00018V4.80009H7.20018V4.00009Z" fill="#7864BF"/>
<path d="M7.20018 4.80009H8.00018V5.60009H7.20018V4.80009Z" fill="#7864BF"/>
<path d="M7.20018 5.60009H8.00018V6.40009H7.20018V5.60009Z" fill="#7864BF"/>
<path d="M8.00018 5.60009H8.80018V6.40009H8.00018V5.60009Z" fill="#7864BF"/>
<path d="M8.80018 5.60009H9.60018V6.40009H8.80018V5.60009Z" fill="#7864BF"/>
<path d="M9.60018 5.60009H10.4002V6.40009H9.60018V5.60009Z" fill="#7864BF"/>
<path d="M10.4002 5.60009H11.2002V6.40009H10.4002V5.60009Z" fill="#7864BF"/>
<path d="M11.2002 5.60009H12.0002V6.40009H11.2002V5.60009Z" fill="#7864BF"/>
<path d="M12.0002 5.60009H12.8002V6.40009H12.0002V5.60009Z" fill="#7864BF"/>
<path d="M12.8002 5.60009H13.6002V6.40009H12.8002V5.60009Z" fill="#7864BF"/>
<path d="M12.8002 6.40009H13.6002V7.20009H12.8002V6.40009Z" fill="#7864BF"/>
<path d="M12.0002 6.40009H12.8002V7.20009H12.0002V6.40009Z" fill="#7864BF"/>
<path d="M12.0002 7.20009H12.8002V8.00009H12.0002V7.20009Z" fill="#7864BF"/>
<path d="M11.2002 7.20009H12.0002V8.00009H11.2002V7.20009Z" fill="#7864BF"/>
<path d="M11.2002 6.40009H12.0002V7.20009H11.2002V6.40009Z" fill="#7864BF"/>
<path d="M10.4002 6.40009H11.2002V7.20009H10.4002V6.40009Z" fill="#7864BF"/>
<path d="M9.60018 6.40009H10.4002V7.20009H9.60018V6.40009Z" fill="#7864BF"/>
<path d="M11.2002 8.00009H12.0002V8.80009H11.2002V8.00009Z" fill="#7864BF"/>
<path d="M8.00018 4.80009H8.80018V5.60009H8.00018V4.80009Z" fill="#7864BF"/>
<path d="M8.80018 4.80009H9.60018V5.60009H8.80018V4.80009Z" fill="#7864BF"/>
<path d="M8.80018 4.00009H9.60018V4.80009H8.80018V4.00009Z" fill="#7864BF"/>
<path d="M7.20018 2.40009H8.00018V3.20009H7.20018V2.40009Z" fill="#7864BF"/>
<path d="M8.00018 2.40009H8.80018V3.20009H8.00018V2.40009Z" fill="#7864BF"/>
<path d="M7.20018 1.60009H8.00018V2.40009H7.20018V1.60009Z" fill="#7864BF"/>
<path d="M2.40018 4.80009H3.20018V5.60009H2.40018V4.80009Z" fill="#B9A6FC"/>
<path d="M1.60018 4.80009H2.40018V5.60009H1.60018V4.80009Z" fill="#B9A6FC"/>
<path d="M0.800183 4.80009H1.60018V5.60009H0.800183V4.80009Z" fill="#B9A6FC"/>
<path d="M0.800183 5.60009H1.60018V6.40009H0.800183V5.60009Z" fill="#7864BF"/>
<path d="M0.000183105 5.60009H0.800183V6.40009H0.000183105V5.60009Z" fill="#B9A6FC"/>
<path d="M0.000183105 6.40009H0.800183V7.20009H0.000183105V6.40009Z" fill="#B9A6FC"/>
<path d="M1.60018 5.60009H2.40018V6.40009H1.60018V5.60009Z" fill="#7864BF"/>
<path d="M1.60018 6.40009H2.40018V7.20009H1.60018V6.40009Z" fill="#7864BF"/>
<path d="M0.800183 6.40009H1.60018V7.20009H0.800183V6.40009Z" fill="#7864BF"/>
<path d="M0.800183 7.20009H1.60018V8.00009H0.800183V7.20009Z" fill="#B9A6FC"/>
<path d="M1.60018 7.20009H2.40018V8.00009H1.60018V7.20009Z" fill="#B9A6FC"/>
</svg>
