<svg width="390" height="220" viewBox="0 0 390 220" fill="none" xmlns="http://www.w3.org/2000/svg">
<path d="M8.78715 91.7214C8.82974 90.7344 10.1254 90.4004 10.6399 91.2437L12.4995 94.2918C12.673 94.5764 12.977 94.7557 13.31 94.7701L16.8772 94.924C17.8642 94.9666 18.1983 96.2623 17.3549 96.7768L14.3068 98.6363C14.0223 98.8099 13.843 99.1139 13.8286 99.4469L13.6746 103.014C13.6321 104.001 12.3364 104.335 11.8219 103.492L9.96234 100.444C9.78875 100.159 9.48479 99.9798 9.15178 99.9655L5.58455 99.8115C4.59756 99.7689 4.26351 98.4733 5.10686 97.9588L8.15495 96.0992C8.4395 95.9256 8.61884 95.6217 8.63321 95.2887L8.78715 91.7214Z" fill="white" fill-opacity="0.2"/>
<path d="M339.14 176.604C339.183 175.617 340.478 175.283 340.993 176.126L342.852 179.174C343.026 179.459 343.33 179.638 343.663 179.653L347.23 179.806C348.217 179.849 348.551 181.145 347.708 181.659L344.66 183.519C344.375 183.692 344.196 183.996 344.182 184.329L344.028 187.897C343.985 188.884 342.689 189.218 342.175 188.374L340.315 185.326C340.142 185.042 339.838 184.862 339.505 184.848L335.938 184.694C334.951 184.651 334.617 183.356 335.46 182.841L338.508 180.982C338.793 180.808 338.972 180.504 338.986 180.171L339.14 176.604Z" fill="white" fill-opacity="0.2"/>
<path d="M83.2743 3.14313C83.5619 2.19803 84.8999 2.19804 85.1876 3.14313L86.2273 6.55896C86.3243 6.87784 86.5739 7.1274 86.8927 7.22445L90.3086 8.26412C91.2537 8.55178 91.2537 9.8898 90.3086 10.1775L86.8927 11.2171C86.5739 11.3142 86.3243 11.5637 86.2273 11.8826L85.1876 15.2985C84.8999 16.2435 83.5619 16.2435 83.2743 15.2984L82.2346 11.8826C82.1375 11.5637 81.888 11.3142 81.5691 11.2171L78.1533 10.1775C77.2082 9.8898 77.2082 8.55178 78.1533 8.26412L81.5691 7.22445C81.888 7.1274 82.1375 6.87784 82.2346 6.55896L83.2743 3.14313Z" fill="white" fill-opacity="0.2"/>
<path d="M301.787 16.5744C301.83 15.5875 303.125 15.2534 303.64 16.0968L305.499 19.1448C305.673 19.4294 305.977 19.6087 306.31 19.6231L309.877 19.777C310.864 19.8196 311.198 21.1153 310.355 21.6298L307.307 23.4893C307.022 23.6629 306.843 23.9669 306.829 24.2999L306.675 27.8671C306.632 28.8541 305.336 29.1882 304.822 28.3448L302.962 25.2967C302.789 25.0122 302.485 24.8329 302.152 24.8185L298.585 24.6645C297.598 24.622 297.264 23.3263 298.107 22.8118L301.155 20.9522C301.439 20.7786 301.619 20.4747 301.633 20.1417L301.787 16.5744Z" fill="white" fill-opacity="0.2"/>
<path d="M166.274 76.3784C166.562 75.4333 167.9 75.4333 168.187 76.3784L169.227 79.7942C169.324 80.1131 169.574 80.3626 169.893 80.4597L173.308 81.4994C174.254 81.787 174.254 83.125 173.308 83.4127L169.893 84.4524C169.574 84.5494 169.324 84.799 169.227 85.1178L168.187 88.5337C167.9 89.4788 166.562 89.4788 166.274 88.5337L165.234 85.1178C165.137 84.799 164.888 84.5494 164.569 84.4524L161.153 83.4127C160.208 83.125 160.208 81.787 161.153 81.4994L164.569 80.4597C164.888 80.3626 165.137 80.1131 165.234 79.7942L166.274 76.3784Z" fill="white" fill-opacity="0.2"/>
<path d="M356.686 58.0253C356.974 57.0802 358.312 57.0802 358.599 58.0253L359.639 61.4412C359.736 61.76 359.986 62.0096 360.304 62.1067L363.72 63.1463C364.665 63.434 364.665 64.772 363.72 65.0597L360.304 66.0993C359.986 66.1964 359.736 66.4459 359.639 66.7648L358.599 70.1807C358.312 71.1257 356.974 71.1257 356.686 70.1807L355.646 66.7648C355.549 66.4459 355.3 66.1964 354.981 66.0993L351.565 65.0597C350.62 64.772 350.62 63.434 351.565 63.1463L354.981 62.1067C355.3 62.0096 355.549 61.76 355.646 61.4412L356.686 58.0253Z" fill="white" fill-opacity="0.2"/>
<path d="M283.264 89.133C283.552 88.1879 284.89 88.1879 285.177 89.133L286.217 92.5488C286.314 92.8677 286.564 93.1173 286.883 93.2143L290.298 94.254C291.244 94.5416 291.244 95.8797 290.298 96.1673L286.883 97.207C286.564 97.3041 286.314 97.5536 286.217 97.8725L285.177 101.288C284.89 102.233 283.552 102.233 283.264 101.288L282.224 97.8725C282.127 97.5536 281.878 97.3041 281.559 97.207L278.143 96.1673C277.198 95.8797 277.198 94.5416 278.143 94.254L281.559 93.2143C281.878 93.1173 282.127 92.8677 282.224 92.5488L283.264 89.133Z" fill="white" fill-opacity="0.2"/>
<path d="M169.003 176.07C169.725 175.396 170.884 176.065 170.66 177.027L169.853 180.505C169.777 180.83 169.869 181.171 170.096 181.414L172.535 184.022C173.209 184.744 172.54 185.903 171.578 185.679L168.1 184.872C167.775 184.797 167.434 184.888 167.191 185.116L164.582 187.554C163.861 188.229 162.702 187.56 162.925 186.597L163.733 183.119C163.808 182.794 163.717 182.454 163.489 182.21L161.051 179.602C160.376 178.88 161.045 177.721 162.008 177.945L165.486 178.752C165.81 178.828 166.151 178.736 166.395 178.509L169.003 176.07Z" fill="white" fill-opacity="0.2"/>
<path d="M59.7808 128.518C59.5574 127.556 60.7161 126.886 61.4378 127.561L62.8886 128.917C63.1321 129.145 63.473 129.236 63.7977 129.161L65.7322 128.712C66.6945 128.488 67.3635 129.647 66.6889 130.369L65.3326 131.82C65.105 132.063 65.0137 132.404 65.089 132.729L65.5382 134.663C65.7616 135.626 64.6029 136.295 63.8812 135.62L62.4304 134.264C62.1869 134.036 61.846 133.945 61.5213 134.02L59.5868 134.469C58.6245 134.693 57.9555 133.534 58.6301 132.812L59.9864 131.361C60.214 131.118 60.3054 130.777 60.23 130.452L59.7808 128.518Z" fill="white" fill-opacity="0.5"/>
<path d="M158.016 12.812C157.793 11.8497 158.951 11.1807 159.673 11.8553L161.124 13.2116C161.367 13.4392 161.708 13.5306 162.033 13.4552L163.968 13.006C164.93 12.7826 165.599 13.9413 164.924 14.663L163.568 16.1138C163.34 16.3573 163.249 16.6982 163.324 17.0229L163.774 18.9574C163.997 19.9197 162.838 20.5888 162.117 19.9141L160.666 18.5578C160.422 18.3302 160.081 18.2389 159.757 18.3143L157.822 18.7634C156.86 18.9868 156.191 17.8281 156.865 17.1064L158.222 15.6556C158.449 15.4121 158.541 15.0712 158.465 14.7466L158.016 12.812Z" fill="white" fill-opacity="0.5"/>
<path d="M344.911 134.444C345.632 133.769 346.791 134.438 346.568 135.4L346.119 137.335C346.043 137.659 346.135 138 346.362 138.244L347.718 139.695C348.393 140.416 347.724 141.575 346.762 141.352L344.827 140.903C344.503 140.827 344.162 140.918 343.918 141.146L342.467 142.502C341.746 143.177 340.587 142.508 340.81 141.546L341.26 139.611C341.335 139.286 341.244 138.946 341.016 138.702L339.66 137.251C338.985 136.53 339.654 135.371 340.616 135.594L342.551 136.043C342.876 136.119 343.216 136.027 343.46 135.8L344.911 134.444Z" fill="white" fill-opacity="0.5"/>
<path d="M368.117 11.8553C368.838 11.1807 369.997 11.8497 369.774 12.812L369.324 14.7466C369.249 15.0712 369.34 15.4121 369.568 15.6556L370.924 17.1064C371.599 17.8281 370.93 18.9869 369.968 18.7634L368.033 18.3143C367.708 18.2389 367.367 18.3302 367.124 18.5578L365.673 19.9141C364.951 20.5888 363.793 19.9197 364.016 18.9574L364.465 17.0229C364.541 16.6982 364.449 16.3573 364.222 16.1138L362.865 14.663C362.191 13.9414 362.86 12.7826 363.822 13.006L365.757 13.4552C366.081 13.5306 366.422 13.4392 366.666 13.2116L368.117 11.8553Z" fill="white" fill-opacity="0.5"/>
<path d="M232.499 62.1788C233.221 61.5042 234.379 62.1732 234.156 63.1355L233.707 65.07C233.631 65.3947 233.723 65.7356 233.95 65.9791L235.307 67.4299C235.981 68.1516 235.312 69.3103 234.35 69.0869L232.415 68.6377C232.091 68.5624 231.75 68.6537 231.506 68.8813L230.056 70.2376C229.334 70.9122 228.175 70.2432 228.399 69.2809L228.848 67.3464C228.923 67.0217 228.832 66.6808 228.604 66.4373L227.248 64.9865C226.573 64.2648 227.242 63.1061 228.205 63.3295L230.139 63.7787C230.464 63.8541 230.805 63.7627 231.048 63.5351L232.499 62.1788Z" fill="white" fill-opacity="0.5"/>
<path d="M240.287 208.574C240.575 207.629 241.913 207.629 242.2 208.574L242.778 210.474C242.876 210.793 243.125 211.043 243.444 211.14L245.344 211.718C246.289 212.006 246.289 213.344 245.344 213.631L243.444 214.21C243.125 214.307 242.876 214.556 242.778 214.875L242.2 216.775C241.913 217.72 240.575 217.72 240.287 216.775L239.709 214.875C239.612 214.556 239.362 214.307 239.043 214.21L237.143 213.631C236.198 213.344 236.198 212.006 237.143 211.718L239.043 211.14C239.362 211.043 239.612 210.793 239.709 210.474L240.287 208.574Z" fill="white" fill-opacity="0.5"/>
<path d="M38.2869 44.133C38.5745 43.1879 39.9125 43.1879 40.2002 44.133L40.7785 46.033C40.8755 46.3518 41.1251 46.6014 41.444 46.6984L43.3439 47.2767C44.289 47.5644 44.289 48.9024 43.3439 49.1901L41.444 49.7684C41.1251 49.8654 40.8755 50.115 40.7785 50.4338L40.2002 52.3338C39.9125 53.2789 38.5745 53.2789 38.2869 52.3338L37.7086 50.4338C37.6115 50.115 37.362 49.8654 37.0431 49.7684L35.1431 49.1901C34.198 48.9024 34.198 47.5644 35.1431 47.2767L37.0431 46.6984C37.362 46.6014 37.6115 46.3518 37.7086 46.033L38.2869 44.133Z" fill="white" fill-opacity="0.5"/>
<path d="M101.132 49.133C101.419 48.1879 102.757 48.1879 103.045 49.133L104.61 54.2736C104.707 54.5925 104.956 54.8421 105.275 54.9391L110.416 56.5038C111.361 56.7914 111.361 58.1295 110.416 58.4171L105.275 59.9818C104.956 60.0788 104.707 60.3284 104.61 60.6473L103.045 65.7879C102.757 66.733 101.419 66.733 101.132 65.7879L99.5669 60.6473C99.4699 60.3284 99.2203 60.0788 98.9015 59.9818L93.7608 58.4171C92.8157 58.1295 92.8157 56.7914 93.7608 56.5038L98.9015 54.9391C99.2203 54.8421 99.4699 54.5925 99.5669 54.2736L101.132 49.133Z" fill="white"/>
<path d="M280.073 168.427C280.36 167.482 281.698 167.482 281.986 168.427L283.551 173.568C283.648 173.887 283.897 174.136 284.216 174.233L289.357 175.798C290.302 176.086 290.302 177.424 289.357 177.711L284.216 179.276C283.897 179.373 283.648 179.622 283.551 179.941L281.986 185.082C281.698 186.027 280.36 186.027 280.073 185.082L278.508 179.941C278.411 179.622 278.161 179.373 277.843 179.276L272.702 177.711C271.757 177.424 271.757 176.086 272.702 175.798L277.843 174.233C278.161 174.136 278.411 173.887 278.508 173.568L280.073 168.427Z" fill="white"/>
<path d="M56.3962 185.633C56.6839 184.688 58.0219 184.688 58.3096 185.633L59.8742 190.774C59.9713 191.093 60.2208 191.342 60.5397 191.439L65.6804 193.004C66.6255 193.291 66.6255 194.629 65.6804 194.917L60.5397 196.482C60.2208 196.579 59.9713 196.828 59.8742 197.147L58.3096 202.288C58.0219 203.233 56.6839 203.233 56.3962 202.288L54.8316 197.147C54.7345 196.828 54.485 196.579 54.1661 196.482L49.0255 194.917C48.0804 194.629 48.0804 193.291 49.0255 193.004L54.1661 191.439C54.485 191.342 54.7345 191.093 54.8316 190.774L56.3962 185.633Z" fill="white"/>
<path d="M377.573 121.398C377.86 120.453 379.198 120.453 379.486 121.398L381.051 126.538C381.148 126.857 381.397 127.107 381.716 127.204L386.857 128.769C387.802 129.056 387.802 130.394 386.857 130.682L381.716 132.247C381.397 132.344 381.148 132.593 381.051 132.912L379.486 138.053C379.198 138.998 377.86 138.998 377.573 138.053L376.008 132.912C375.911 132.593 375.661 132.344 375.343 132.247L370.202 130.682C369.257 130.394 369.257 129.056 370.202 128.769L375.343 127.204C375.661 127.107 375.911 126.857 376.008 126.538L377.573 121.398Z" fill="white" fill-opacity="0.5"/>
</svg>
